<?xml version="1.0" encoding="UTF-8"?>
<svg xmlns="http://www.w3.org/2000/svg" width="1320" height="360" viewBox="0 0 1320 360" role="img" aria-labelledby="title desc">
  <title id="title">MD3Music Star 趋势</title>
  <desc id="desc">截至 2026-10-01，当前 Stars 752，首尾差值 +552，共 42 个快照。悬停曲线可查看每日数据。</desc>
  <style>
    text { font-family: Arial, 'Microsoft YaHei', sans-serif; fill: #e7e7e9; }
    .subtitle, .axis, .metric-label, .footer { fill: #a7a7ad; }
    .subtitle { font-size: 12px; } .axis { font-size: 11px; }
    .metric-value { font-size: 14px; font-weight: 700; } .metric-label { font-size: 11px; }
    .footer { font-size: 10px; } .tooltip-date { font-size: 12px; font-weight: 700; }
    .tooltip-text { font-size: 12px; } .crosshair { stroke: #b9b9bc; stroke-width: 1; }
    .tooltip { opacity: 0; pointer-events: none; } .point:hover .tooltip { opacity: 1; }
  </style>
  <rect x="1" y="1" width="1318" height="358" rx="9" fill="#1d1e20" stroke="#35363a"/>
  <text x="24" y="34" font-size="18" font-weight="700">Star 趋势</text>
  <text x="24" y="58" class="subtitle">最近 90 天本地快照趋势，前台不实时请求 GitHub。</text>
  <rect x="924" y="15" width="92" height="55" rx="5" fill="#303033"/><text x="933" y="37" class="metric-value">752</text><text x="933" y="58" class="metric-label">当前 Stars</text><rect x="1019" y="15" width="92" height="55" rx="5" fill="#303033"/><text x="1028" y="37" class="metric-value">+552</text><text x="1028" y="58" class="metric-label">首尾差值</text><rect x="1114" y="15" width="92" height="55" rx="5" fill="#303033"/><text x="1123" y="37" class="metric-value">42</text><text x="1123" y="58" class="metric-label">快照数量</text><rect x="1209" y="15" width="92" height="55" rx="5" fill="#303033"/><text x="1218" y="37" class="metric-value">2026-10-01</text><text x="1218" y="58" class="metric-label">最近快照</text>
  <g class="axis"><line x1="72" y1="306.0" x2="1292" y2="306.0" stroke="#45464a" stroke-dasharray="4 5"/><text x="60" y="310.0" text-anchor="end">200</text><line x1="72" y1="239.3" x2="1292" y2="239.3" stroke="#45464a" stroke-dasharray="4 5"/><text x="60" y="243.3" text-anchor="end">400</text><line x1="72" y1="172.7" x2="1292" y2="172.7" stroke="#45464a" stroke-dasharray="4 5"/><text x="60" y="176.7" text-anchor="end">600</text><line x1="72" y1="106.0" x2="1292" y2="106.0" stroke="#45464a" stroke-dasharray="4 5"/><text x="60" y="110.0" text-anchor="end">800</text><text x="72.0" y="326" text-anchor="middle">2026-08-21</text><text x="161.3" y="326" text-anchor="middle">2026-08-24</text><text x="280.3" y="326" text-anchor="middle">2026-08-28</text><text x="369.6" y="326" text-anchor="middle">2026-08-31</text><text x="488.6" y="326" text-anchor="middle">2026-09-04</text><text x="577.9" y="326" text-anchor="middle">2026-09-07</text><text x="667.1" y="326" text-anchor="middle">2026-09-10</text><text x="786.1" y="326" text-anchor="middle">2026-09-14</text><text x="875.4" y="326" text-anchor="middle">2026-09-17</text><text x="994.4" y="326" text-anchor="middle">2026-09-21</text><text x="1083.7" y="326" text-anchor="middle">2026-09-24</text><text x="1202.7" y="326" text-anchor="middle">2026-09-28</text><text x="1292.0" y="326" text-anchor="middle">2026-10-01</text></g>
  <path d="M 72.0 306.0 Q 101.8 304.7 116.6 303.8 Q 131.5 303.0 146.4 302.0 Q 161.3 301.0 176.1 300.0 Q 191.0 299.0 205.9 298.5 Q 220.8 298.0 235.7 297.2 Q 250.5 296.3 265.4 296.0 Q 280.3 295.7 295.2 295.0 Q 310.0 294.3 324.9 292.8 Q 339.8 291.3 354.7 289.2 Q 369.6 287.0 384.4 286.0 Q 399.3 285.0 414.2 283.5 Q 429.1 282.0 444.0 281.3 Q 458.8 280.7 473.7 280.3 Q 488.6 280.0 503.5 279.3 Q 518.3 278.7 533.2 277.7 Q 548.1 276.7 563.0 275.3 Q 577.9 274.0 592.7 273.2 Q 607.6 272.3 622.5 272.0 Q 637.4 271.7 652.2 271.5 Q 667.1 271.3 682.0 270.2 Q 696.9 269.0 711.8 268.5 Q 726.6 268.0 741.5 267.2 Q 756.4 266.3 771.3 265.5 Q 786.1 264.7 801.0 259.5 Q 815.9 254.3 830.8 248.8 Q 845.7 243.3 860.5 236.8 Q 875.4 230.3 890.3 223.7 Q 905.2 217.0 920.0 210.5 Q 934.9 204.0 949.8 200.7 Q 964.7 197.3 979.6 192.8 Q 994.4 188.3 1009.3 185.5 Q 1024.2 182.7 1039.1 179.5 Q 1054.0 176.3 1068.8 173.7 Q 1083.7 171.0 1098.6 166.7 Q 1113.5 162.3 1128.3 159.5 Q 1143.2 156.7 1158.1 154.3 Q 1173.0 152.0 1187.9 149.3 Q 1202.7 146.7 1217.6 146.5 Q 1232.5 146.3 1247.4 138.0 Q 1262.2 129.7 1277.1 125.8 L 1292.0 122.0 L 1292.0 306.0 L 72.0 306.0 Z" fill="#5baeff" fill-opacity=".13"/>
  <path d="M 72.0 306.0 Q 101.8 304.7 116.6 303.8 Q 131.5 303.0 146.4 302.0 Q 161.3 301.0 176.1 300.0 Q 191.0 299.0 205.9 298.5 Q 220.8 298.0 235.7 297.2 Q 250.5 296.3 265.4 296.0 Q 280.3 295.7 295.2 295.0 Q 310.0 294.3 324.9 292.8 Q 339.8 291.3 354.7 289.2 Q 369.6 287.0 384.4 286.0 Q 399.3 285.0 414.2 283.5 Q 429.1 282.0 444.0 281.3 Q 458.8 280.7 473.7 280.3 Q 488.6 280.0 503.5 279.3 Q 518.3 278.7 533.2 277.7 Q 548.1 276.7 563.0 275.3 Q 577.9 274.0 592.7 273.2 Q 607.6 272.3 622.5 272.0 Q 637.4 271.7 652.2 271.5 Q 667.1 271.3 682.0 270.2 Q 696.9 269.0 711.8 268.5 Q 726.6 268.0 741.5 267.2 Q 756.4 266.3 771.3 265.5 Q 786.1 264.7 801.0 259.5 Q 815.9 254.3 830.8 248.8 Q 845.7 243.3 860.5 236.8 Q 875.4 230.3 890.3 223.7 Q 905.2 217.0 920.0 210.5 Q 934.9 204.0 949.8 200.7 Q 964.7 197.3 979.6 192.8 Q 994.4 188.3 1009.3 185.5 Q 1024.2 182.7 1039.1 179.5 Q 1054.0 176.3 1068.8 173.7 Q 1083.7 171.0 1098.6 166.7 Q 1113.5 162.3 1128.3 159.5 Q 1143.2 156.7 1158.1 154.3 Q 1173.0 152.0 1187.9 149.3 Q 1202.7 146.7 1217.6 146.5 Q 1232.5 146.3 1247.4 138.0 Q 1262.2 129.7 1277.1 125.8 L 1292.0 122.0" fill="none" stroke="#63b7ff" stroke-width="2" stroke-linecap="round" stroke-linejoin="round"/>
  <g><g class="point"><circle cx="72.0" cy="306.0" r="11" fill="transparent"/><g class="tooltip"><line x1="72.0" y1="106" x2="72.0" y2="306" class="crosshair"/><circle cx="72.0" cy="306.0" r="4" fill="#69baff" stroke="#fff" stroke-width="1.5"/><rect x="85.0" y="236.0" width="124" height="66" rx="4" fill="#101113" opacity=".96"/><text x="93.0" y="254.0" class="tooltip-date">2026-08-21</text><text x="93.0" y="275.0" class="tooltip-text">Stars: 200</text><text x="93.0" y="293.0" class="tooltip-text">单日增长: —</text></g></g><g class="point"><circle cx="101.8" cy="304.7" r="11" fill="transparent"/><g class="tooltip"><line x1="101.8" y1="106" x2="101.8" y2="306" class="crosshair"/><circle cx="101.8" cy="304.7" r="4" fill="#69baff" stroke="#fff" stroke-width="1.5"/><rect x="114.8" y="236.0" width="124" height="66" rx="4" fill="#101113" opacity=".96"/><text x="122.8" y="254.0" class="tooltip-date">2026-08-22</text><text x="122.8" y="275.0" class="tooltip-text">Stars: 204</text><text x="122.8" y="293.0" class="tooltip-text">单日增长: +4</text></g></g><g class="point"><circle cx="131.5" cy="303.0" r="11" fill="transparent"/><g class="tooltip"><line x1="131.5" y1="106" x2="131.5" y2="306" class="crosshair"/><circle cx="131.5" cy="303.0" r="4" fill="#69baff" stroke="#fff" stroke-width="1.5"/><rect x="144.5" y="236.0" width="124" height="66" rx="4" fill="#101113" opacity=".96"/><text x="152.5" y="254.0" class="tooltip-date">2026-08-23</text><text x="152.5" y="275.0" class="tooltip-text">Stars: 209</text><text x="152.5" y="293.0" class="tooltip-text">单日增长: +5</text></g></g><g class="point"><circle cx="161.3" cy="301.0" r="11" fill="transparent"/><g class="tooltip"><line x1="161.3" y1="106" x2="161.3" y2="306" class="crosshair"/><circle cx="161.3" cy="301.0" r="4" fill="#69baff" stroke="#fff" stroke-width="1.5"/><rect x="174.3" y="236.0" width="124" height="66" rx="4" fill="#101113" opacity=".96"/><text x="182.3" y="254.0" class="tooltip-date">2026-08-24</text><text x="182.3" y="275.0" class="tooltip-text">Stars: 215</text><text x="182.3" y="293.0" class="tooltip-text">单日增长: +6</text></g></g><g class="point"><circle cx="191.0" cy="299.0" r="11" fill="transparent"/><g class="tooltip"><line x1="191.0" y1="106" x2="191.0" y2="306" class="crosshair"/><circle cx="191.0" cy="299.0" r="4" fill="#69baff" stroke="#fff" stroke-width="1.5"/><rect x="204.0" y="236.0" width="124" height="66" rx="4" fill="#101113" opacity=".96"/><text x="212.0" y="254.0" class="tooltip-date">2026-08-25</text><text x="212.0" y="275.0" class="tooltip-text">Stars: 221</text><text x="212.0" y="293.0" class="tooltip-text">单日增长: +6</text></g></g><g class="point"><circle cx="220.8" cy="298.0" r="11" fill="transparent"/><g class="tooltip"><line x1="220.8" y1="106" x2="220.8" y2="306" class="crosshair"/><circle cx="220.8" cy="298.0" r="4" fill="#69baff" stroke="#fff" stroke-width="1.5"/><rect x="233.8" y="236.0" width="124" height="66" rx="4" fill="#101113" opacity=".96"/><text x="241.8" y="254.0" class="tooltip-date">2026-08-26</text><text x="241.8" y="275.0" class="tooltip-text">Stars: 224</text><text x="241.8" y="293.0" class="tooltip-text">单日增长: +3</text></g></g><g class="point"><circle cx="250.5" cy="296.3" r="11" fill="transparent"/><g class="tooltip"><line x1="250.5" y1="106" x2="250.5" y2="306" class="crosshair"/><circle cx="250.5" cy="296.3" r="4" fill="#69baff" stroke="#fff" stroke-width="1.5"/><rect x="263.5" y="236.0" width="124" height="66" rx="4" fill="#101113" opacity=".96"/><text x="271.5" y="254.0" class="tooltip-date">2026-08-27</text><text x="271.5" y="275.0" class="tooltip-text">Stars: 229</text><text x="271.5" y="293.0" class="tooltip-text">单日增长: +5</text></g></g><g class="point"><circle cx="280.3" cy="295.7" r="11" fill="transparent"/><g class="tooltip"><line x1="280.3" y1="106" x2="280.3" y2="306" class="crosshair"/><circle cx="280.3" cy="295.7" r="4" fill="#69baff" stroke="#fff" stroke-width="1.5"/><rect x="293.3" y="236.0" width="124" height="66" rx="4" fill="#101113" opacity=".96"/><text x="301.3" y="254.0" class="tooltip-date">2026-08-28</text><text x="301.3" y="275.0" class="tooltip-text">Stars: 231</text><text x="301.3" y="293.0" class="tooltip-text">单日增长: +2</text></g></g><g class="point"><circle cx="310.0" cy="294.3" r="11" fill="transparent"/><g class="tooltip"><line x1="310.0" y1="106" x2="310.0" y2="306" class="crosshair"/><circle cx="310.0" cy="294.3" r="4" fill="#69baff" stroke="#fff" stroke-width="1.5"/><rect x="323.0" y="236.0" width="124" height="66" rx="4" fill="#101113" opacity=".96"/><text x="331.0" y="254.0" class="tooltip-date">2026-08-29</text><text x="331.0" y="275.0" class="tooltip-text">Stars: 235</text><text x="331.0" y="293.0" class="tooltip-text">单日增长: +4</text></g></g><g class="point"><circle cx="339.8" cy="291.3" r="11" fill="transparent"/><g class="tooltip"><line x1="339.8" y1="106" x2="339.8" y2="306" class="crosshair"/><circle cx="339.8" cy="291.3" r="4" fill="#69baff" stroke="#fff" stroke-width="1.5"/><rect x="352.8" y="236.0" width="124" height="66" rx="4" fill="#101113" opacity=".96"/><text x="360.8" y="254.0" class="tooltip-date">2026-08-30</text><text x="360.8" y="275.0" class="tooltip-text">Stars: 244</text><text x="360.8" y="293.0" class="tooltip-text">单日增长: +9</text></g></g><g class="point"><circle cx="369.6" cy="287.0" r="11" fill="transparent"/><g class="tooltip"><line x1="369.6" y1="106" x2="369.6" y2="306" class="crosshair"/><circle cx="369.6" cy="287.0" r="4" fill="#69baff" stroke="#fff" stroke-width="1.5"/><rect x="382.6" y="236.0" width="124" height="66" rx="4" fill="#101113" opacity=".96"/><text x="390.6" y="254.0" class="tooltip-date">2026-08-31</text><text x="390.6" y="275.0" class="tooltip-text">Stars: 257</text><text x="390.6" y="293.0" class="tooltip-text">单日增长: +13</text></g></g><g class="point"><circle cx="399.3" cy="285.0" r="11" fill="transparent"/><g class="tooltip"><line x1="399.3" y1="106" x2="399.3" y2="306" class="crosshair"/><circle cx="399.3" cy="285.0" r="4" fill="#69baff" stroke="#fff" stroke-width="1.5"/><rect x="412.3" y="236.0" width="124" height="66" rx="4" fill="#101113" opacity=".96"/><text x="420.3" y="254.0" class="tooltip-date">2026-09-01</text><text x="420.3" y="275.0" class="tooltip-text">Stars: 263</text><text x="420.3" y="293.0" class="tooltip-text">单日增长: +6</text></g></g><g class="point"><circle cx="429.1" cy="282.0" r="11" fill="transparent"/><g class="tooltip"><line x1="429.1" y1="106" x2="429.1" y2="306" class="crosshair"/><circle cx="429.1" cy="282.0" r="4" fill="#69baff" stroke="#fff" stroke-width="1.5"/><rect x="442.1" y="236.0" width="124" height="66" rx="4" fill="#101113" opacity=".96"/><text x="450.1" y="254.0" class="tooltip-date">2026-09-02</text><text x="450.1" y="275.0" class="tooltip-text">Stars: 272</text><text x="450.1" y="293.0" class="tooltip-text">单日增长: +9</text></g></g><g class="point"><circle cx="458.8" cy="280.7" r="11" fill="transparent"/><g class="tooltip"><line x1="458.8" y1="106" x2="458.8" y2="306" class="crosshair"/><circle cx="458.8" cy="280.7" r="4" fill="#69baff" stroke="#fff" stroke-width="1.5"/><rect x="471.8" y="236.0" width="124" height="66" rx="4" fill="#101113" opacity=".96"/><text x="479.8" y="254.0" class="tooltip-date">2026-09-03</text><text x="479.8" y="275.0" class="tooltip-text">Stars: 276</text><text x="479.8" y="293.0" class="tooltip-text">单日增长: +4</text></g></g><g class="point"><circle cx="488.6" cy="280.0" r="11" fill="transparent"/><g class="tooltip"><line x1="488.6" y1="106" x2="488.6" y2="306" class="crosshair"/><circle cx="488.6" cy="280.0" r="4" fill="#69baff" stroke="#fff" stroke-width="1.5"/><rect x="501.6" y="236.0" width="124" height="66" rx="4" fill="#101113" opacity=".96"/><text x="509.6" y="254.0" class="tooltip-date">2026-09-04</text><text x="509.6" y="275.0" class="tooltip-text">Stars: 278</text><text x="509.6" y="293.0" class="tooltip-text">单日增长: +2</text></g></g><g class="point"><circle cx="518.3" cy="278.7" r="11" fill="transparent"/><g class="tooltip"><line x1="518.3" y1="106" x2="518.3" y2="306" class="crosshair"/><circle cx="518.3" cy="278.7" r="4" fill="#69baff" stroke="#fff" stroke-width="1.5"/><rect x="531.3" y="236.0" width="124" height="66" rx="4" fill="#101113" opacity=".96"/><text x="539.3" y="254.0" class="tooltip-date">2026-09-05</text><text x="539.3" y="275.0" class="tooltip-text">Stars: 282</text><text x="539.3" y="293.0" class="tooltip-text">单日增长: +4</text></g></g><g class="point"><circle cx="548.1" cy="276.7" r="11" fill="transparent"/><g class="tooltip"><line x1="548.1" y1="106" x2="548.1" y2="306" class="crosshair"/><circle cx="548.1" cy="276.7" r="4" fill="#69baff" stroke="#fff" stroke-width="1.5"/><rect x="561.1" y="236.0" width="124" height="66" rx="4" fill="#101113" opacity=".96"/><text x="569.1" y="254.0" class="tooltip-date">2026-09-06</text><text x="569.1" y="275.0" class="tooltip-text">Stars: 288</text><text x="569.1" y="293.0" class="tooltip-text">单日增长: +6</text></g></g><g class="point"><circle cx="577.9" cy="274.0" r="11" fill="transparent"/><g class="tooltip"><line x1="577.9" y1="106" x2="577.9" y2="306" class="crosshair"/><circle cx="577.9" cy="274.0" r="4" fill="#69baff" stroke="#fff" stroke-width="1.5"/><rect x="590.9" y="236.0" width="124" height="66" rx="4" fill="#101113" opacity=".96"/><text x="598.9" y="254.0" class="tooltip-date">2026-09-07</text><text x="598.9" y="275.0" class="tooltip-text">Stars: 296</text><text x="598.9" y="293.0" class="tooltip-text">单日增长: +8</text></g></g><g class="point"><circle cx="607.6" cy="272.3" r="11" fill="transparent"/><g class="tooltip"><line x1="607.6" y1="106" x2="607.6" y2="306" class="crosshair"/><circle cx="607.6" cy="272.3" r="4" fill="#69baff" stroke="#fff" stroke-width="1.5"/><rect x="620.6" y="236.0" width="124" height="66" rx="4" fill="#101113" opacity=".96"/><text x="628.6" y="254.0" class="tooltip-date">2026-09-08</text><text x="628.6" y="275.0" class="tooltip-text">Stars: 301</text><text x="628.6" y="293.0" class="tooltip-text">单日增长: +5</text></g></g><g class="point"><circle cx="637.4" cy="271.7" r="11" fill="transparent"/><g class="tooltip"><line x1="637.4" y1="106" x2="637.4" y2="306" class="crosshair"/><circle cx="637.4" cy="271.7" r="4" fill="#69baff" stroke="#fff" stroke-width="1.5"/><rect x="650.4" y="236.0" width="124" height="66" rx="4" fill="#101113" opacity=".96"/><text x="658.4" y="254.0" class="tooltip-date">2026-09-09</text><text x="658.4" y="275.0" class="tooltip-text">Stars: 303</text><text x="658.4" y="293.0" class="tooltip-text">单日增长: +2</text></g></g><g class="point"><circle cx="667.1" cy="271.3" r="11" fill="transparent"/><g class="tooltip"><line x1="667.1" y1="106" x2="667.1" y2="306" class="crosshair"/><circle cx="667.1" cy="271.3" r="4" fill="#69baff" stroke="#fff" stroke-width="1.5"/><rect x="680.1" y="236.0" width="124" height="66" rx="4" fill="#101113" opacity=".96"/><text x="688.1" y="254.0" class="tooltip-date">2026-09-10</text><text x="688.1" y="275.0" class="tooltip-text">Stars: 304</text><text x="688.1" y="293.0" class="tooltip-text">单日增长: +1</text></g></g><g class="point"><circle cx="696.9" cy="269.0" r="11" fill="transparent"/><g class="tooltip"><line x1="696.9" y1="106" x2="696.9" y2="306" class="crosshair"/><circle cx="696.9" cy="269.0" r="4" fill="#69baff" stroke="#fff" stroke-width="1.5"/><rect x="709.9" y="236.0" width="124" height="66" rx="4" fill="#101113" opacity=".96"/><text x="717.9" y="254.0" class="tooltip-date">2026-09-11</text><text x="717.9" y="275.0" class="tooltip-text">Stars: 311</text><text x="717.9" y="293.0" class="tooltip-text">单日增长: +7</text></g></g><g class="point"><circle cx="726.6" cy="268.0" r="11" fill="transparent"/><g class="tooltip"><line x1="726.6" y1="106" x2="726.6" y2="306" class="crosshair"/><circle cx="726.6" cy="268.0" r="4" fill="#69baff" stroke="#fff" stroke-width="1.5"/><rect x="739.6" y="235.0" width="124" height="66" rx="4" fill="#101113" opacity=".96"/><text x="747.6" y="253.0" class="tooltip-date">2026-09-12</text><text x="747.6" y="274.0" class="tooltip-text">Stars: 314</text><text x="747.6" y="292.0" class="tooltip-text">单日增长: +3</text></g></g><g class="point"><circle cx="756.4" cy="266.3" r="11" fill="transparent"/><g class="tooltip"><line x1="756.4" y1="106" x2="756.4" y2="306" class="crosshair"/><circle cx="756.4" cy="266.3" r="4" fill="#69baff" stroke="#fff" stroke-width="1.5"/><rect x="769.4" y="233.3" width="124" height="66" rx="4" fill="#101113" opacity=".96"/><text x="777.4" y="251.3" class="tooltip-date">2026-09-13</text><text x="777.4" y="272.3" class="tooltip-text">Stars: 319</text><text x="777.4" y="290.3" class="tooltip-text">单日增长: +5</text></g></g><g class="point"><circle cx="786.1" cy="264.7" r="11" fill="transparent"/><g class="tooltip"><line x1="786.1" y1="106" x2="786.1" y2="306" class="crosshair"/><circle cx="786.1" cy="264.7" r="4" fill="#69baff" stroke="#fff" stroke-width="1.5"/><rect x="799.1" y="231.7" width="124" height="66" rx="4" fill="#101113" opacity=".96"/><text x="807.1" y="249.7" class="tooltip-date">2026-09-14</text><text x="807.1" y="270.7" class="tooltip-text">Stars: 324</text><text x="807.1" y="288.7" class="tooltip-text">单日增长: +5</text></g></g><g class="point"><circle cx="815.9" cy="254.3" r="11" fill="transparent"/><g class="tooltip"><line x1="815.9" y1="106" x2="815.9" y2="306" class="crosshair"/><circle cx="815.9" cy="254.3" r="4" fill="#69baff" stroke="#fff" stroke-width="1.5"/><rect x="828.9" y="221.3" width="124" height="66" rx="4" fill="#101113" opacity=".96"/><text x="836.9" y="239.3" class="tooltip-date">2026-09-15</text><text x="836.9" y="260.3" class="tooltip-text">Stars: 355</text><text x="836.9" y="278.3" class="tooltip-text">单日增长: +31</text></g></g><g class="point"><circle cx="845.7" cy="243.3" r="11" fill="transparent"/><g class="tooltip"><line x1="845.7" y1="106" x2="845.7" y2="306" class="crosshair"/><circle cx="845.7" cy="243.3" r="4" fill="#69baff" stroke="#fff" stroke-width="1.5"/><rect x="858.7" y="210.3" width="124" height="66" rx="4" fill="#101113" opacity=".96"/><text x="866.7" y="228.3" class="tooltip-date">2026-09-16</text><text x="866.7" y="249.3" class="tooltip-text">Stars: 388</text><text x="866.7" y="267.3" class="tooltip-text">单日增长: +33</text></g></g><g class="point"><circle cx="875.4" cy="230.3" r="11" fill="transparent"/><g class="tooltip"><line x1="875.4" y1="106" x2="875.4" y2="306" class="crosshair"/><circle cx="875.4" cy="230.3" r="4" fill="#69baff" stroke="#fff" stroke-width="1.5"/><rect x="888.4" y="197.3" width="124" height="66" rx="4" fill="#101113" opacity=".96"/><text x="896.4" y="215.3" class="tooltip-date">2026-09-17</text><text x="896.4" y="236.3" class="tooltip-text">Stars: 427</text><text x="896.4" y="254.3" class="tooltip-text">单日增长: +39</text></g></g><g class="point"><circle cx="905.2" cy="217.0" r="11" fill="transparent"/><g class="tooltip"><line x1="905.2" y1="106" x2="905.2" y2="306" class="crosshair"/><circle cx="905.2" cy="217.0" r="4" fill="#69baff" stroke="#fff" stroke-width="1.5"/><rect x="918.2" y="184.0" width="124" height="66" rx="4" fill="#101113" opacity=".96"/><text x="926.2" y="202.0" class="tooltip-date">2026-09-18</text><text x="926.2" y="223.0" class="tooltip-text">Stars: 467</text><text x="926.2" y="241.0" class="tooltip-text">单日增长: +40</text></g></g><g class="point"><circle cx="934.9" cy="204.0" r="11" fill="transparent"/><g class="tooltip"><line x1="934.9" y1="106" x2="934.9" y2="306" class="crosshair"/><circle cx="934.9" cy="204.0" r="4" fill="#69baff" stroke="#fff" stroke-width="1.5"/><rect x="947.9" y="171.0" width="124" height="66" rx="4" fill="#101113" opacity=".96"/><text x="955.9" y="189.0" class="tooltip-date">2026-09-19</text><text x="955.9" y="210.0" class="tooltip-text">Stars: 506</text><text x="955.9" y="228.0" class="tooltip-text">单日增长: +39</text></g></g><g class="point"><circle cx="964.7" cy="197.3" r="11" fill="transparent"/><g class="tooltip"><line x1="964.7" y1="106" x2="964.7" y2="306" class="crosshair"/><circle cx="964.7" cy="197.3" r="4" fill="#69baff" stroke="#fff" stroke-width="1.5"/><rect x="977.7" y="164.3" width="124" height="66" rx="4" fill="#101113" opacity=".96"/><text x="985.7" y="182.3" class="tooltip-date">2026-09-20</text><text x="985.7" y="203.3" class="tooltip-text">Stars: 526</text><text x="985.7" y="221.3" class="tooltip-text">单日增长: +20</text></g></g><g class="point"><circle cx="994.4" cy="188.3" r="11" fill="transparent"/><g class="tooltip"><line x1="994.4" y1="106" x2="994.4" y2="306" class="crosshair"/><circle cx="994.4" cy="188.3" r="4" fill="#69baff" stroke="#fff" stroke-width="1.5"/><rect x="1007.4" y="155.3" width="124" height="66" rx="4" fill="#101113" opacity=".96"/><text x="1015.4" y="173.3" class="tooltip-date">2026-09-21</text><text x="1015.4" y="194.3" class="tooltip-text">Stars: 553</text><text x="1015.4" y="212.3" class="tooltip-text">单日增长: +27</text></g></g><g class="point"><circle cx="1024.2" cy="182.7" r="11" fill="transparent"/><g class="tooltip"><line x1="1024.2" y1="106" x2="1024.2" y2="306" class="crosshair"/><circle cx="1024.2" cy="182.7" r="4" fill="#69baff" stroke="#fff" stroke-width="1.5"/><rect x="1037.2" y="149.7" width="124" height="66" rx="4" fill="#101113" opacity=".96"/><text x="1045.2" y="167.7" class="tooltip-date">2026-09-22</text><text x="1045.2" y="188.7" class="tooltip-text">Stars: 570</text><text x="1045.2" y="206.7" class="tooltip-text">单日增长: +17</text></g></g><g class="point"><circle cx="1054.0" cy="176.3" r="11" fill="transparent"/><g class="tooltip"><line x1="1054.0" y1="106" x2="1054.0" y2="306" class="crosshair"/><circle cx="1054.0" cy="176.3" r="4" fill="#69baff" stroke="#fff" stroke-width="1.5"/><rect x="1067.0" y="143.3" width="124" height="66" rx="4" fill="#101113" opacity=".96"/><text x="1075.0" y="161.3" class="tooltip-date">2026-09-23</text><text x="1075.0" y="182.3" class="tooltip-text">Stars: 589</text><text x="1075.0" y="200.3" class="tooltip-text">单日增长: +19</text></g></g><g class="point"><circle cx="1083.7" cy="171.0" r="11" fill="transparent"/><g class="tooltip"><line x1="1083.7" y1="106" x2="1083.7" y2="306" class="crosshair"/><circle cx="1083.7" cy="171.0" r="4" fill="#69baff" stroke="#fff" stroke-width="1.5"/><rect x="1096.7" y="138.0" width="124" height="66" rx="4" fill="#101113" opacity=".96"/><text x="1104.7" y="156.0" class="tooltip-date">2026-09-24</text><text x="1104.7" y="177.0" class="tooltip-text">Stars: 605</text><text x="1104.7" y="195.0" class="tooltip-text">单日增长: +16</text></g></g><g class="point"><circle cx="1113.5" cy="162.3" r="11" fill="transparent"/><g class="tooltip"><line x1="1113.5" y1="106" x2="1113.5" y2="306" class="crosshair"/><circle cx="1113.5" cy="162.3" r="4" fill="#69baff" stroke="#fff" stroke-width="1.5"/><rect x="1126.5" y="129.3" width="124" height="66" rx="4" fill="#101113" opacity=".96"/><text x="1134.5" y="147.3" class="tooltip-date">2026-09-25</text><text x="1134.5" y="168.3" class="tooltip-text">Stars: 631</text><text x="1134.5" y="186.3" class="tooltip-text">单日增长: +26</text></g></g><g class="point"><circle cx="1143.2" cy="156.7" r="11" fill="transparent"/><g class="tooltip"><line x1="1143.2" y1="106" x2="1143.2" y2="306" class="crosshair"/><circle cx="1143.2" cy="156.7" r="4" fill="#69baff" stroke="#fff" stroke-width="1.5"/><rect x="1156.2" y="123.7" width="124" height="66" rx="4" fill="#101113" opacity=".96"/><text x="1164.2" y="141.7" class="tooltip-date">2026-09-26</text><text x="1164.2" y="162.7" class="tooltip-text">Stars: 648</text><text x="1164.2" y="180.7" class="tooltip-text">单日增长: +17</text></g></g><g class="point"><circle cx="1173.0" cy="152.0" r="11" fill="transparent"/><g class="tooltip"><line x1="1173.0" y1="106" x2="1173.0" y2="306" class="crosshair"/><circle cx="1173.0" cy="152.0" r="4" fill="#69baff" stroke="#fff" stroke-width="1.5"/><rect x="1036.0" y="119.0" width="124" height="66" rx="4" fill="#101113" opacity=".96"/><text x="1044.0" y="137.0" class="tooltip-date">2026-09-27</text><text x="1044.0" y="158.0" class="tooltip-text">Stars: 662</text><text x="1044.0" y="176.0" class="tooltip-text">单日增长: +14</text></g></g><g class="point"><circle cx="1202.7" cy="146.7" r="11" fill="transparent"/><g class="tooltip"><line x1="1202.7" y1="106" x2="1202.7" y2="306" class="crosshair"/><circle cx="1202.7" cy="146.7" r="4" fill="#69baff" stroke="#fff" stroke-width="1.5"/><rect x="1065.7" y="113.7" width="124" height="66" rx="4" fill="#101113" opacity=".96"/><text x="1073.7" y="131.7" class="tooltip-date">2026-09-28</text><text x="1073.7" y="152.7" class="tooltip-text">Stars: 678</text><text x="1073.7" y="170.7" class="tooltip-text">单日增长: +16</text></g></g><g class="point"><circle cx="1232.5" cy="146.3" r="11" fill="transparent"/><g class="tooltip"><line x1="1232.5" y1="106" x2="1232.5" y2="306" class="crosshair"/><circle cx="1232.5" cy="146.3" r="4" fill="#69baff" stroke="#fff" stroke-width="1.5"/><rect x="1095.5" y="113.3" width="124" height="66" rx="4" fill="#101113" opacity=".96"/><text x="1103.5" y="131.3" class="tooltip-date">2026-09-29</text><text x="1103.5" y="152.3" class="tooltip-text">Stars: 679</text><text x="1103.5" y="170.3" class="tooltip-text">单日增长: +1</text></g></g><g class="point"><circle cx="1262.2" cy="129.7" r="11" fill="transparent"/><g class="tooltip"><line x1="1262.2" y1="106" x2="1262.2" y2="306" class="crosshair"/><circle cx="1262.2" cy="129.7" r="4" fill="#69baff" stroke="#fff" stroke-width="1.5"/><rect x="1125.2" y="110.0" width="124" height="66" rx="4" fill="#101113" opacity=".96"/><text x="1133.2" y="128.0" class="tooltip-date">2026-09-30</text><text x="1133.2" y="149.0" class="tooltip-text">Stars: 729</text><text x="1133.2" y="167.0" class="tooltip-text">单日增长: +50</text></g></g><g class="point"><circle cx="1292.0" cy="122.0" r="11" fill="transparent"/><g class="tooltip"><line x1="1292.0" y1="106" x2="1292.0" y2="306" class="crosshair"/><circle cx="1292.0" cy="122.0" r="4" fill="#69baff" stroke="#fff" stroke-width="1.5"/><rect x="1155.0" y="110.0" width="124" height="66" rx="4" fill="#101113" opacity=".96"/><text x="1163.0" y="128.0" class="tooltip-date">2026-10-01</text><text x="1163.0" y="149.0" class="tooltip-text">Stars: 752</text><text x="1163.0" y="167.0" class="tooltip-text">单日增长: +23</text></g></g></g>
  <text x="24" y="352" class="footer">趋势基于本地每日快照，不在前台实时请求 GitHub。</text>
</svg>
