<?xml version="1.0" encoding="UTF-8"?>
<svg xmlns="http://www.w3.org/2000/svg" width="1320" height="360" viewBox="0 0 1320 360" role="img" aria-labelledby="title desc">
  <title id="title">MD3Music Star 趋势</title>
  <desc id="desc">截至 2026-10-03，当前 Stars 793，首尾差值 +593，共 44 个快照。悬停曲线可查看每日数据。</desc>
  <style>
    text { font-family: Arial, 'Microsoft YaHei', sans-serif; fill: #e7e7e9; }
    .subtitle, .axis, .metric-label, .footer { fill: #a7a7ad; }
    .subtitle { font-size: 12px; } .axis { font-size: 11px; }
    .metric-value { font-size: 14px; font-weight: 700; } .metric-label { font-size: 11px; }
    .footer { font-size: 10px; } .tooltip-date { font-size: 12px; font-weight: 700; }
    .tooltip-text { font-size: 12px; } .crosshair { stroke: #b9b9bc; stroke-width: 1; }
    .tooltip { opacity: 0; pointer-events: none; } .point:hover .tooltip { opacity: 1; }
  </style>
  <rect x="1" y="1" width="1318" height="358" rx="9" fill="#1d1e20" stroke="#35363a"/>
  <text x="24" y="34" font-size="18" font-weight="700">Star 趋势</text>
  <text x="24" y="58" class="subtitle">最近 90 天本地快照趋势，前台不实时请求 GitHub。</text>
  <rect x="924" y="15" width="92" height="55" rx="5" fill="#303033"/><text x="933" y="37" class="metric-value">793</text><text x="933" y="58" class="metric-label">当前 Stars</text><rect x="1019" y="15" width="92" height="55" rx="5" fill="#303033"/><text x="1028" y="37" class="metric-value">+593</text><text x="1028" y="58" class="metric-label">首尾差值</text><rect x="1114" y="15" width="92" height="55" rx="5" fill="#303033"/><text x="1123" y="37" class="metric-value">44</text><text x="1123" y="58" class="metric-label">快照数量</text><rect x="1209" y="15" width="92" height="55" rx="5" fill="#303033"/><text x="1218" y="37" class="metric-value">2026-10-03</text><text x="1218" y="58" class="metric-label">最近快照</text>
  <g class="axis"><line x1="72" y1="306.0" x2="1292" y2="306.0" stroke="#45464a" stroke-dasharray="4 5"/><text x="60" y="310.0" text-anchor="end">200</text><line x1="72" y1="239.3" x2="1292" y2="239.3" stroke="#45464a" stroke-dasharray="4 5"/><text x="60" y="243.3" text-anchor="end">400</text><line x1="72" y1="172.7" x2="1292" y2="172.7" stroke="#45464a" stroke-dasharray="4 5"/><text x="60" y="176.7" text-anchor="end">600</text><line x1="72" y1="106.0" x2="1292" y2="106.0" stroke="#45464a" stroke-dasharray="4 5"/><text x="60" y="110.0" text-anchor="end">800</text><text x="72.0" y="326" text-anchor="middle">2026-08-21</text><text x="185.5" y="326" text-anchor="middle">2026-08-25</text><text x="270.6" y="326" text-anchor="middle">2026-08-28</text><text x="384.1" y="326" text-anchor="middle">2026-09-01</text><text x="469.2" y="326" text-anchor="middle">2026-09-04</text><text x="582.7" y="326" text-anchor="middle">2026-09-08</text><text x="696.2" y="326" text-anchor="middle">2026-09-12</text><text x="781.3" y="326" text-anchor="middle">2026-09-15</text><text x="894.8" y="326" text-anchor="middle">2026-09-19</text><text x="979.9" y="326" text-anchor="middle">2026-09-22</text><text x="1093.4" y="326" text-anchor="middle">2026-09-26</text><text x="1178.5" y="326" text-anchor="middle">2026-09-29</text><text x="1292.0" y="326" text-anchor="middle">2026-10-03</text></g>
  <path d="M 72.0 306.0 Q 100.4 304.7 114.6 303.8 Q 128.7 303.0 142.9 302.0 Q 157.1 301.0 171.3 300.0 Q 185.5 299.0 199.7 298.5 Q 213.9 298.0 228.0 297.2 Q 242.2 296.3 256.4 296.0 Q 270.6 295.7 284.8 295.0 Q 299.0 294.3 313.2 292.8 Q 327.3 291.3 341.5 289.2 Q 355.7 287.0 369.9 286.0 Q 384.1 285.0 398.3 283.5 Q 412.5 282.0 426.7 281.3 Q 440.8 280.7 455.0 280.3 Q 469.2 280.0 483.4 279.3 Q 497.6 278.7 511.8 277.7 Q 526.0 276.7 540.1 275.3 Q 554.3 274.0 568.5 273.2 Q 582.7 272.3 596.9 272.0 Q 611.1 271.7 625.3 271.5 Q 639.4 271.3 653.6 270.2 Q 667.8 269.0 682.0 268.5 Q 696.2 268.0 710.4 267.2 Q 724.6 266.3 738.7 265.5 Q 752.9 264.7 767.1 259.5 Q 781.3 254.3 795.5 248.8 Q 809.7 243.3 823.9 236.8 Q 838.0 230.3 852.2 223.7 Q 866.4 217.0 880.6 210.5 Q 894.8 204.0 909.0 200.7 Q 923.2 197.3 937.3 192.8 Q 951.5 188.3 965.7 185.5 Q 979.9 182.7 994.1 179.5 Q 1008.3 176.3 1022.5 173.7 Q 1036.7 171.0 1050.8 166.7 Q 1065.0 162.3 1079.2 159.5 Q 1093.4 156.7 1107.6 154.3 Q 1121.8 152.0 1136.0 149.3 Q 1150.1 146.7 1164.3 146.5 Q 1178.5 146.3 1192.7 138.0 Q 1206.9 129.7 1221.1 125.7 Q 1235.3 121.7 1249.4 118.0 Q 1263.6 114.3 1277.8 111.3 L 1292.0 108.3 L 1292.0 306.0 L 72.0 306.0 Z" fill="#5baeff" fill-opacity=".13"/>
  <path d="M 72.0 306.0 Q 100.4 304.7 114.6 303.8 Q 128.7 303.0 142.9 302.0 Q 157.1 301.0 171.3 300.0 Q 185.5 299.0 199.7 298.5 Q 213.9 298.0 228.0 297.2 Q 242.2 296.3 256.4 296.0 Q 270.6 295.7 284.8 295.0 Q 299.0 294.3 313.2 292.8 Q 327.3 291.3 341.5 289.2 Q 355.7 287.0 369.9 286.0 Q 384.1 285.0 398.3 283.5 Q 412.5 282.0 426.7 281.3 Q 440.8 280.7 455.0 280.3 Q 469.2 280.0 483.4 279.3 Q 497.6 278.7 511.8 277.7 Q 526.0 276.7 540.1 275.3 Q 554.3 274.0 568.5 273.2 Q 582.7 272.3 596.9 272.0 Q 611.1 271.7 625.3 271.5 Q 639.4 271.3 653.6 270.2 Q 667.8 269.0 682.0 268.5 Q 696.2 268.0 710.4 267.2 Q 724.6 266.3 738.7 265.5 Q 752.9 264.7 767.1 259.5 Q 781.3 254.3 795.5 248.8 Q 809.7 243.3 823.9 236.8 Q 838.0 230.3 852.2 223.7 Q 866.4 217.0 880.6 210.5 Q 894.8 204.0 909.0 200.7 Q 923.2 197.3 937.3 192.8 Q 951.5 188.3 965.7 185.5 Q 979.9 182.7 994.1 179.5 Q 1008.3 176.3 1022.5 173.7 Q 1036.7 171.0 1050.8 166.7 Q 1065.0 162.3 1079.2 159.5 Q 1093.4 156.7 1107.6 154.3 Q 1121.8 152.0 1136.0 149.3 Q 1150.1 146.7 1164.3 146.5 Q 1178.5 146.3 1192.7 138.0 Q 1206.9 129.7 1221.1 125.7 Q 1235.3 121.7 1249.4 118.0 Q 1263.6 114.3 1277.8 111.3 L 1292.0 108.3" fill="none" stroke="#63b7ff" stroke-width="2" stroke-linecap="round" stroke-linejoin="round"/>
  <g><g class="point"><circle cx="72.0" cy="306.0" r="11" fill="transparent"/><g class="tooltip"><line x1="72.0" y1="106" x2="72.0" y2="306" class="crosshair"/><circle cx="72.0" cy="306.0" r="4" fill="#69baff" stroke="#fff" stroke-width="1.5"/><rect x="85.0" y="236.0" width="124" height="66" rx="4" fill="#101113" opacity=".96"/><text x="93.0" y="254.0" class="tooltip-date">2026-08-21</text><text x="93.0" y="275.0" class="tooltip-text">Stars: 200</text><text x="93.0" y="293.0" class="tooltip-text">单日增长: —</text></g></g><g class="point"><circle cx="100.4" cy="304.7" r="11" fill="transparent"/><g class="tooltip"><line x1="100.4" y1="106" x2="100.4" y2="306" class="crosshair"/><circle cx="100.4" cy="304.7" r="4" fill="#69baff" stroke="#fff" stroke-width="1.5"/><rect x="113.4" y="236.0" width="124" height="66" rx="4" fill="#101113" opacity=".96"/><text x="121.4" y="254.0" class="tooltip-date">2026-08-22</text><text x="121.4" y="275.0" class="tooltip-text">Stars: 204</text><text x="121.4" y="293.0" class="tooltip-text">单日增长: +4</text></g></g><g class="point"><circle cx="128.7" cy="303.0" r="11" fill="transparent"/><g class="tooltip"><line x1="128.7" y1="106" x2="128.7" y2="306" class="crosshair"/><circle cx="128.7" cy="303.0" r="4" fill="#69baff" stroke="#fff" stroke-width="1.5"/><rect x="141.7" y="236.0" width="124" height="66" rx="4" fill="#101113" opacity=".96"/><text x="149.7" y="254.0" class="tooltip-date">2026-08-23</text><text x="149.7" y="275.0" class="tooltip-text">Stars: 209</text><text x="149.7" y="293.0" class="tooltip-text">单日增长: +5</text></g></g><g class="point"><circle cx="157.1" cy="301.0" r="11" fill="transparent"/><g class="tooltip"><line x1="157.1" y1="106" x2="157.1" y2="306" class="crosshair"/><circle cx="157.1" cy="301.0" r="4" fill="#69baff" stroke="#fff" stroke-width="1.5"/><rect x="170.1" y="236.0" width="124" height="66" rx="4" fill="#101113" opacity=".96"/><text x="178.1" y="254.0" class="tooltip-date">2026-08-24</text><text x="178.1" y="275.0" class="tooltip-text">Stars: 215</text><text x="178.1" y="293.0" class="tooltip-text">单日增长: +6</text></g></g><g class="point"><circle cx="185.5" cy="299.0" r="11" fill="transparent"/><g class="tooltip"><line x1="185.5" y1="106" x2="185.5" y2="306" class="crosshair"/><circle cx="185.5" cy="299.0" r="4" fill="#69baff" stroke="#fff" stroke-width="1.5"/><rect x="198.5" y="236.0" width="124" height="66" rx="4" fill="#101113" opacity=".96"/><text x="206.5" y="254.0" class="tooltip-date">2026-08-25</text><text x="206.5" y="275.0" class="tooltip-text">Stars: 221</text><text x="206.5" y="293.0" class="tooltip-text">单日增长: +6</text></g></g><g class="point"><circle cx="213.9" cy="298.0" r="11" fill="transparent"/><g class="tooltip"><line x1="213.9" y1="106" x2="213.9" y2="306" class="crosshair"/><circle cx="213.9" cy="298.0" r="4" fill="#69baff" stroke="#fff" stroke-width="1.5"/><rect x="226.9" y="236.0" width="124" height="66" rx="4" fill="#101113" opacity=".96"/><text x="234.9" y="254.0" class="tooltip-date">2026-08-26</text><text x="234.9" y="275.0" class="tooltip-text">Stars: 224</text><text x="234.9" y="293.0" class="tooltip-text">单日增长: +3</text></g></g><g class="point"><circle cx="242.2" cy="296.3" r="11" fill="transparent"/><g class="tooltip"><line x1="242.2" y1="106" x2="242.2" y2="306" class="crosshair"/><circle cx="242.2" cy="296.3" r="4" fill="#69baff" stroke="#fff" stroke-width="1.5"/><rect x="255.2" y="236.0" width="124" height="66" rx="4" fill="#101113" opacity=".96"/><text x="263.2" y="254.0" class="tooltip-date">2026-08-27</text><text x="263.2" y="275.0" class="tooltip-text">Stars: 229</text><text x="263.2" y="293.0" class="tooltip-text">单日增长: +5</text></g></g><g class="point"><circle cx="270.6" cy="295.7" r="11" fill="transparent"/><g class="tooltip"><line x1="270.6" y1="106" x2="270.6" y2="306" class="crosshair"/><circle cx="270.6" cy="295.7" r="4" fill="#69baff" stroke="#fff" stroke-width="1.5"/><rect x="283.6" y="236.0" width="124" height="66" rx="4" fill="#101113" opacity=".96"/><text x="291.6" y="254.0" class="tooltip-date">2026-08-28</text><text x="291.6" y="275.0" class="tooltip-text">Stars: 231</text><text x="291.6" y="293.0" class="tooltip-text">单日增长: +2</text></g></g><g class="point"><circle cx="299.0" cy="294.3" r="11" fill="transparent"/><g class="tooltip"><line x1="299.0" y1="106" x2="299.0" y2="306" class="crosshair"/><circle cx="299.0" cy="294.3" r="4" fill="#69baff" stroke="#fff" stroke-width="1.5"/><rect x="312.0" y="236.0" width="124" height="66" rx="4" fill="#101113" opacity=".96"/><text x="320.0" y="254.0" class="tooltip-date">2026-08-29</text><text x="320.0" y="275.0" class="tooltip-text">Stars: 235</text><text x="320.0" y="293.0" class="tooltip-text">单日增长: +4</text></g></g><g class="point"><circle cx="327.3" cy="291.3" r="11" fill="transparent"/><g class="tooltip"><line x1="327.3" y1="106" x2="327.3" y2="306" class="crosshair"/><circle cx="327.3" cy="291.3" r="4" fill="#69baff" stroke="#fff" stroke-width="1.5"/><rect x="340.3" y="236.0" width="124" height="66" rx="4" fill="#101113" opacity=".96"/><text x="348.3" y="254.0" class="tooltip-date">2026-08-30</text><text x="348.3" y="275.0" class="tooltip-text">Stars: 244</text><text x="348.3" y="293.0" class="tooltip-text">单日增长: +9</text></g></g><g class="point"><circle cx="355.7" cy="287.0" r="11" fill="transparent"/><g class="tooltip"><line x1="355.7" y1="106" x2="355.7" y2="306" class="crosshair"/><circle cx="355.7" cy="287.0" r="4" fill="#69baff" stroke="#fff" stroke-width="1.5"/><rect x="368.7" y="236.0" width="124" height="66" rx="4" fill="#101113" opacity=".96"/><text x="376.7" y="254.0" class="tooltip-date">2026-08-31</text><text x="376.7" y="275.0" class="tooltip-text">Stars: 257</text><text x="376.7" y="293.0" class="tooltip-text">单日增长: +13</text></g></g><g class="point"><circle cx="384.1" cy="285.0" r="11" fill="transparent"/><g class="tooltip"><line x1="384.1" y1="106" x2="384.1" y2="306" class="crosshair"/><circle cx="384.1" cy="285.0" r="4" fill="#69baff" stroke="#fff" stroke-width="1.5"/><rect x="397.1" y="236.0" width="124" height="66" rx="4" fill="#101113" opacity=".96"/><text x="405.1" y="254.0" class="tooltip-date">2026-09-01</text><text x="405.1" y="275.0" class="tooltip-text">Stars: 263</text><text x="405.1" y="293.0" class="tooltip-text">单日增长: +6</text></g></g><g class="point"><circle cx="412.5" cy="282.0" r="11" fill="transparent"/><g class="tooltip"><line x1="412.5" y1="106" x2="412.5" y2="306" class="crosshair"/><circle cx="412.5" cy="282.0" r="4" fill="#69baff" stroke="#fff" stroke-width="1.5"/><rect x="425.5" y="236.0" width="124" height="66" rx="4" fill="#101113" opacity=".96"/><text x="433.5" y="254.0" class="tooltip-date">2026-09-02</text><text x="433.5" y="275.0" class="tooltip-text">Stars: 272</text><text x="433.5" y="293.0" class="tooltip-text">单日增长: +9</text></g></g><g class="point"><circle cx="440.8" cy="280.7" r="11" fill="transparent"/><g class="tooltip"><line x1="440.8" y1="106" x2="440.8" y2="306" class="crosshair"/><circle cx="440.8" cy="280.7" r="4" fill="#69baff" stroke="#fff" stroke-width="1.5"/><rect x="453.8" y="236.0" width="124" height="66" rx="4" fill="#101113" opacity=".96"/><text x="461.8" y="254.0" class="tooltip-date">2026-09-03</text><text x="461.8" y="275.0" class="tooltip-text">Stars: 276</text><text x="461.8" y="293.0" class="tooltip-text">单日增长: +4</text></g></g><g class="point"><circle cx="469.2" cy="280.0" r="11" fill="transparent"/><g class="tooltip"><line x1="469.2" y1="106" x2="469.2" y2="306" class="crosshair"/><circle cx="469.2" cy="280.0" r="4" fill="#69baff" stroke="#fff" stroke-width="1.5"/><rect x="482.2" y="236.0" width="124" height="66" rx="4" fill="#101113" opacity=".96"/><text x="490.2" y="254.0" class="tooltip-date">2026-09-04</text><text x="490.2" y="275.0" class="tooltip-text">Stars: 278</text><text x="490.2" y="293.0" class="tooltip-text">单日增长: +2</text></g></g><g class="point"><circle cx="497.6" cy="278.7" r="11" fill="transparent"/><g class="tooltip"><line x1="497.6" y1="106" x2="497.6" y2="306" class="crosshair"/><circle cx="497.6" cy="278.7" r="4" fill="#69baff" stroke="#fff" stroke-width="1.5"/><rect x="510.6" y="236.0" width="124" height="66" rx="4" fill="#101113" opacity=".96"/><text x="518.6" y="254.0" class="tooltip-date">2026-09-05</text><text x="518.6" y="275.0" class="tooltip-text">Stars: 282</text><text x="518.6" y="293.0" class="tooltip-text">单日增长: +4</text></g></g><g class="point"><circle cx="526.0" cy="276.7" r="11" fill="transparent"/><g class="tooltip"><line x1="526.0" y1="106" x2="526.0" y2="306" class="crosshair"/><circle cx="526.0" cy="276.7" r="4" fill="#69baff" stroke="#fff" stroke-width="1.5"/><rect x="539.0" y="236.0" width="124" height="66" rx="4" fill="#101113" opacity=".96"/><text x="547.0" y="254.0" class="tooltip-date">2026-09-06</text><text x="547.0" y="275.0" class="tooltip-text">Stars: 288</text><text x="547.0" y="293.0" class="tooltip-text">单日增长: +6</text></g></g><g class="point"><circle cx="554.3" cy="274.0" r="11" fill="transparent"/><g class="tooltip"><line x1="554.3" y1="106" x2="554.3" y2="306" class="crosshair"/><circle cx="554.3" cy="274.0" r="4" fill="#69baff" stroke="#fff" stroke-width="1.5"/><rect x="567.3" y="236.0" width="124" height="66" rx="4" fill="#101113" opacity=".96"/><text x="575.3" y="254.0" class="tooltip-date">2026-09-07</text><text x="575.3" y="275.0" class="tooltip-text">Stars: 296</text><text x="575.3" y="293.0" class="tooltip-text">单日增长: +8</text></g></g><g class="point"><circle cx="582.7" cy="272.3" r="11" fill="transparent"/><g class="tooltip"><line x1="582.7" y1="106" x2="582.7" y2="306" class="crosshair"/><circle cx="582.7" cy="272.3" r="4" fill="#69baff" stroke="#fff" stroke-width="1.5"/><rect x="595.7" y="236.0" width="124" height="66" rx="4" fill="#101113" opacity=".96"/><text x="603.7" y="254.0" class="tooltip-date">2026-09-08</text><text x="603.7" y="275.0" class="tooltip-text">Stars: 301</text><text x="603.7" y="293.0" class="tooltip-text">单日增长: +5</text></g></g><g class="point"><circle cx="611.1" cy="271.7" r="11" fill="transparent"/><g class="tooltip"><line x1="611.1" y1="106" x2="611.1" y2="306" class="crosshair"/><circle cx="611.1" cy="271.7" r="4" fill="#69baff" stroke="#fff" stroke-width="1.5"/><rect x="624.1" y="236.0" width="124" height="66" rx="4" fill="#101113" opacity=".96"/><text x="632.1" y="254.0" class="tooltip-date">2026-09-09</text><text x="632.1" y="275.0" class="tooltip-text">Stars: 303</text><text x="632.1" y="293.0" class="tooltip-text">单日增长: +2</text></g></g><g class="point"><circle cx="639.4" cy="271.3" r="11" fill="transparent"/><g class="tooltip"><line x1="639.4" y1="106" x2="639.4" y2="306" class="crosshair"/><circle cx="639.4" cy="271.3" r="4" fill="#69baff" stroke="#fff" stroke-width="1.5"/><rect x="652.4" y="236.0" width="124" height="66" rx="4" fill="#101113" opacity=".96"/><text x="660.4" y="254.0" class="tooltip-date">2026-09-10</text><text x="660.4" y="275.0" class="tooltip-text">Stars: 304</text><text x="660.4" y="293.0" class="tooltip-text">单日增长: +1</text></g></g><g class="point"><circle cx="667.8" cy="269.0" r="11" fill="transparent"/><g class="tooltip"><line x1="667.8" y1="106" x2="667.8" y2="306" class="crosshair"/><circle cx="667.8" cy="269.0" r="4" fill="#69baff" stroke="#fff" stroke-width="1.5"/><rect x="680.8" y="236.0" width="124" height="66" rx="4" fill="#101113" opacity=".96"/><text x="688.8" y="254.0" class="tooltip-date">2026-09-11</text><text x="688.8" y="275.0" class="tooltip-text">Stars: 311</text><text x="688.8" y="293.0" class="tooltip-text">单日增长: +7</text></g></g><g class="point"><circle cx="696.2" cy="268.0" r="11" fill="transparent"/><g class="tooltip"><line x1="696.2" y1="106" x2="696.2" y2="306" class="crosshair"/><circle cx="696.2" cy="268.0" r="4" fill="#69baff" stroke="#fff" stroke-width="1.5"/><rect x="709.2" y="235.0" width="124" height="66" rx="4" fill="#101113" opacity=".96"/><text x="717.2" y="253.0" class="tooltip-date">2026-09-12</text><text x="717.2" y="274.0" class="tooltip-text">Stars: 314</text><text x="717.2" y="292.0" class="tooltip-text">单日增长: +3</text></g></g><g class="point"><circle cx="724.6" cy="266.3" r="11" fill="transparent"/><g class="tooltip"><line x1="724.6" y1="106" x2="724.6" y2="306" class="crosshair"/><circle cx="724.6" cy="266.3" r="4" fill="#69baff" stroke="#fff" stroke-width="1.5"/><rect x="737.6" y="233.3" width="124" height="66" rx="4" fill="#101113" opacity=".96"/><text x="745.6" y="251.3" class="tooltip-date">2026-09-13</text><text x="745.6" y="272.3" class="tooltip-text">Stars: 319</text><text x="745.6" y="290.3" class="tooltip-text">单日增长: +5</text></g></g><g class="point"><circle cx="752.9" cy="264.7" r="11" fill="transparent"/><g class="tooltip"><line x1="752.9" y1="106" x2="752.9" y2="306" class="crosshair"/><circle cx="752.9" cy="264.7" r="4" fill="#69baff" stroke="#fff" stroke-width="1.5"/><rect x="765.9" y="231.7" width="124" height="66" rx="4" fill="#101113" opacity=".96"/><text x="773.9" y="249.7" class="tooltip-date">2026-09-14</text><text x="773.9" y="270.7" class="tooltip-text">Stars: 324</text><text x="773.9" y="288.7" class="tooltip-text">单日增长: +5</text></g></g><g class="point"><circle cx="781.3" cy="254.3" r="11" fill="transparent"/><g class="tooltip"><line x1="781.3" y1="106" x2="781.3" y2="306" class="crosshair"/><circle cx="781.3" cy="254.3" r="4" fill="#69baff" stroke="#fff" stroke-width="1.5"/><rect x="794.3" y="221.3" width="124" height="66" rx="4" fill="#101113" opacity=".96"/><text x="802.3" y="239.3" class="tooltip-date">2026-09-15</text><text x="802.3" y="260.3" class="tooltip-text">Stars: 355</text><text x="802.3" y="278.3" class="tooltip-text">单日增长: +31</text></g></g><g class="point"><circle cx="809.7" cy="243.3" r="11" fill="transparent"/><g class="tooltip"><line x1="809.7" y1="106" x2="809.7" y2="306" class="crosshair"/><circle cx="809.7" cy="243.3" r="4" fill="#69baff" stroke="#fff" stroke-width="1.5"/><rect x="822.7" y="210.3" width="124" height="66" rx="4" fill="#101113" opacity=".96"/><text x="830.7" y="228.3" class="tooltip-date">2026-09-16</text><text x="830.7" y="249.3" class="tooltip-text">Stars: 388</text><text x="830.7" y="267.3" class="tooltip-text">单日增长: +33</text></g></g><g class="point"><circle cx="838.0" cy="230.3" r="11" fill="transparent"/><g class="tooltip"><line x1="838.0" y1="106" x2="838.0" y2="306" class="crosshair"/><circle cx="838.0" cy="230.3" r="4" fill="#69baff" stroke="#fff" stroke-width="1.5"/><rect x="851.0" y="197.3" width="124" height="66" rx="4" fill="#101113" opacity=".96"/><text x="859.0" y="215.3" class="tooltip-date">2026-09-17</text><text x="859.0" y="236.3" class="tooltip-text">Stars: 427</text><text x="859.0" y="254.3" class="tooltip-text">单日增长: +39</text></g></g><g class="point"><circle cx="866.4" cy="217.0" r="11" fill="transparent"/><g class="tooltip"><line x1="866.4" y1="106" x2="866.4" y2="306" class="crosshair"/><circle cx="866.4" cy="217.0" r="4" fill="#69baff" stroke="#fff" stroke-width="1.5"/><rect x="879.4" y="184.0" width="124" height="66" rx="4" fill="#101113" opacity=".96"/><text x="887.4" y="202.0" class="tooltip-date">2026-09-18</text><text x="887.4" y="223.0" class="tooltip-text">Stars: 467</text><text x="887.4" y="241.0" class="tooltip-text">单日增长: +40</text></g></g><g class="point"><circle cx="894.8" cy="204.0" r="11" fill="transparent"/><g class="tooltip"><line x1="894.8" y1="106" x2="894.8" y2="306" class="crosshair"/><circle cx="894.8" cy="204.0" r="4" fill="#69baff" stroke="#fff" stroke-width="1.5"/><rect x="907.8" y="171.0" width="124" height="66" rx="4" fill="#101113" opacity=".96"/><text x="915.8" y="189.0" class="tooltip-date">2026-09-19</text><text x="915.8" y="210.0" class="tooltip-text">Stars: 506</text><text x="915.8" y="228.0" class="tooltip-text">单日增长: +39</text></g></g><g class="point"><circle cx="923.2" cy="197.3" r="11" fill="transparent"/><g class="tooltip"><line x1="923.2" y1="106" x2="923.2" y2="306" class="crosshair"/><circle cx="923.2" cy="197.3" r="4" fill="#69baff" stroke="#fff" stroke-width="1.5"/><rect x="936.2" y="164.3" width="124" height="66" rx="4" fill="#101113" opacity=".96"/><text x="944.2" y="182.3" class="tooltip-date">2026-09-20</text><text x="944.2" y="203.3" class="tooltip-text">Stars: 526</text><text x="944.2" y="221.3" class="tooltip-text">单日增长: +20</text></g></g><g class="point"><circle cx="951.5" cy="188.3" r="11" fill="transparent"/><g class="tooltip"><line x1="951.5" y1="106" x2="951.5" y2="306" class="crosshair"/><circle cx="951.5" cy="188.3" r="4" fill="#69baff" stroke="#fff" stroke-width="1.5"/><rect x="964.5" y="155.3" width="124" height="66" rx="4" fill="#101113" opacity=".96"/><text x="972.5" y="173.3" class="tooltip-date">2026-09-21</text><text x="972.5" y="194.3" class="tooltip-text">Stars: 553</text><text x="972.5" y="212.3" class="tooltip-text">单日增长: +27</text></g></g><g class="point"><circle cx="979.9" cy="182.7" r="11" fill="transparent"/><g class="tooltip"><line x1="979.9" y1="106" x2="979.9" y2="306" class="crosshair"/><circle cx="979.9" cy="182.7" r="4" fill="#69baff" stroke="#fff" stroke-width="1.5"/><rect x="992.9" y="149.7" width="124" height="66" rx="4" fill="#101113" opacity=".96"/><text x="1000.9" y="167.7" class="tooltip-date">2026-09-22</text><text x="1000.9" y="188.7" class="tooltip-text">Stars: 570</text><text x="1000.9" y="206.7" class="tooltip-text">单日增长: +17</text></g></g><g class="point"><circle cx="1008.3" cy="176.3" r="11" fill="transparent"/><g class="tooltip"><line x1="1008.3" y1="106" x2="1008.3" y2="306" class="crosshair"/><circle cx="1008.3" cy="176.3" r="4" fill="#69baff" stroke="#fff" stroke-width="1.5"/><rect x="1021.3" y="143.3" width="124" height="66" rx="4" fill="#101113" opacity=".96"/><text x="1029.3" y="161.3" class="tooltip-date">2026-09-23</text><text x="1029.3" y="182.3" class="tooltip-text">Stars: 589</text><text x="1029.3" y="200.3" class="tooltip-text">单日增长: +19</text></g></g><g class="point"><circle cx="1036.7" cy="171.0" r="11" fill="transparent"/><g class="tooltip"><line x1="1036.7" y1="106" x2="1036.7" y2="306" class="crosshair"/><circle cx="1036.7" cy="171.0" r="4" fill="#69baff" stroke="#fff" stroke-width="1.5"/><rect x="1049.7" y="138.0" width="124" height="66" rx="4" fill="#101113" opacity=".96"/><text x="1057.7" y="156.0" class="tooltip-date">2026-09-24</text><text x="1057.7" y="177.0" class="tooltip-text">Stars: 605</text><text x="1057.7" y="195.0" class="tooltip-text">单日增长: +16</text></g></g><g class="point"><circle cx="1065.0" cy="162.3" r="11" fill="transparent"/><g class="tooltip"><line x1="1065.0" y1="106" x2="1065.0" y2="306" class="crosshair"/><circle cx="1065.0" cy="162.3" r="4" fill="#69baff" stroke="#fff" stroke-width="1.5"/><rect x="1078.0" y="129.3" width="124" height="66" rx="4" fill="#101113" opacity=".96"/><text x="1086.0" y="147.3" class="tooltip-date">2026-09-25</text><text x="1086.0" y="168.3" class="tooltip-text">Stars: 631</text><text x="1086.0" y="186.3" class="tooltip-text">单日增长: +26</text></g></g><g class="point"><circle cx="1093.4" cy="156.7" r="11" fill="transparent"/><g class="tooltip"><line x1="1093.4" y1="106" x2="1093.4" y2="306" class="crosshair"/><circle cx="1093.4" cy="156.7" r="4" fill="#69baff" stroke="#fff" stroke-width="1.5"/><rect x="1106.4" y="123.7" width="124" height="66" rx="4" fill="#101113" opacity=".96"/><text x="1114.4" y="141.7" class="tooltip-date">2026-09-26</text><text x="1114.4" y="162.7" class="tooltip-text">Stars: 648</text><text x="1114.4" y="180.7" class="tooltip-text">单日增长: +17</text></g></g><g class="point"><circle cx="1121.8" cy="152.0" r="11" fill="transparent"/><g class="tooltip"><line x1="1121.8" y1="106" x2="1121.8" y2="306" class="crosshair"/><circle cx="1121.8" cy="152.0" r="4" fill="#69baff" stroke="#fff" stroke-width="1.5"/><rect x="1134.8" y="119.0" width="124" height="66" rx="4" fill="#101113" opacity=".96"/><text x="1142.8" y="137.0" class="tooltip-date">2026-09-27</text><text x="1142.8" y="158.0" class="tooltip-text">Stars: 662</text><text x="1142.8" y="176.0" class="tooltip-text">单日增长: +14</text></g></g><g class="point"><circle cx="1150.1" cy="146.7" r="11" fill="transparent"/><g class="tooltip"><line x1="1150.1" y1="106" x2="1150.1" y2="306" class="crosshair"/><circle cx="1150.1" cy="146.7" r="4" fill="#69baff" stroke="#fff" stroke-width="1.5"/><rect x="1163.1" y="113.7" width="124" height="66" rx="4" fill="#101113" opacity=".96"/><text x="1171.1" y="131.7" class="tooltip-date">2026-09-28</text><text x="1171.1" y="152.7" class="tooltip-text">Stars: 678</text><text x="1171.1" y="170.7" class="tooltip-text">单日增长: +16</text></g></g><g class="point"><circle cx="1178.5" cy="146.3" r="11" fill="transparent"/><g class="tooltip"><line x1="1178.5" y1="106" x2="1178.5" y2="306" class="crosshair"/><circle cx="1178.5" cy="146.3" r="4" fill="#69baff" stroke="#fff" stroke-width="1.5"/><rect x="1041.5" y="113.3" width="124" height="66" rx="4" fill="#101113" opacity=".96"/><text x="1049.5" y="131.3" class="tooltip-date">2026-09-29</text><text x="1049.5" y="152.3" class="tooltip-text">Stars: 679</text><text x="1049.5" y="170.3" class="tooltip-text">单日增长: +1</text></g></g><g class="point"><circle cx="1206.9" cy="129.7" r="11" fill="transparent"/><g class="tooltip"><line x1="1206.9" y1="106" x2="1206.9" y2="306" class="crosshair"/><circle cx="1206.9" cy="129.7" r="4" fill="#69baff" stroke="#fff" stroke-width="1.5"/><rect x="1069.9" y="110.0" width="124" height="66" rx="4" fill="#101113" opacity=".96"/><text x="1077.9" y="128.0" class="tooltip-date">2026-09-30</text><text x="1077.9" y="149.0" class="tooltip-text">Stars: 729</text><text x="1077.9" y="167.0" class="tooltip-text">单日增长: +50</text></g></g><g class="point"><circle cx="1235.3" cy="121.7" r="11" fill="transparent"/><g class="tooltip"><line x1="1235.3" y1="106" x2="1235.3" y2="306" class="crosshair"/><circle cx="1235.3" cy="121.7" r="4" fill="#69baff" stroke="#fff" stroke-width="1.5"/><rect x="1098.3" y="110.0" width="124" height="66" rx="4" fill="#101113" opacity=".96"/><text x="1106.3" y="128.0" class="tooltip-date">2026-10-01</text><text x="1106.3" y="149.0" class="tooltip-text">Stars: 753</text><text x="1106.3" y="167.0" class="tooltip-text">单日增长: +24</text></g></g><g class="point"><circle cx="1263.6" cy="114.3" r="11" fill="transparent"/><g class="tooltip"><line x1="1263.6" y1="106" x2="1263.6" y2="306" class="crosshair"/><circle cx="1263.6" cy="114.3" r="4" fill="#69baff" stroke="#fff" stroke-width="1.5"/><rect x="1126.6" y="110.0" width="124" height="66" rx="4" fill="#101113" opacity=".96"/><text x="1134.6" y="128.0" class="tooltip-date">2026-10-02</text><text x="1134.6" y="149.0" class="tooltip-text">Stars: 775</text><text x="1134.6" y="167.0" class="tooltip-text">单日增长: +22</text></g></g><g class="point"><circle cx="1292.0" cy="108.3" r="11" fill="transparent"/><g class="tooltip"><line x1="1292.0" y1="106" x2="1292.0" y2="306" class="crosshair"/><circle cx="1292.0" cy="108.3" r="4" fill="#69baff" stroke="#fff" stroke-width="1.5"/><rect x="1155.0" y="110.0" width="124" height="66" rx="4" fill="#101113" opacity=".96"/><text x="1163.0" y="128.0" class="tooltip-date">2026-10-03</text><text x="1163.0" y="149.0" class="tooltip-text">Stars: 793</text><text x="1163.0" y="167.0" class="tooltip-text">单日增长: +18</text></g></g></g>
  <text x="24" y="352" class="footer">趋势基于本地每日快照，不在前台实时请求 GitHub。</text>
</svg>
