<?xml version="1.0" encoding="UTF-8"?>
<svg xmlns="http://www.w3.org/2000/svg" width="1320" height="360" viewBox="0 0 1320 360" role="img" aria-labelledby="title desc">
  <title id="title">MD3Music Star 趋势</title>
  <desc id="desc">截至 2026-10-02，当前 Stars 759，首尾差值 +559，共 43 个快照。悬停曲线可查看每日数据。</desc>
  <style>
    text { font-family: Arial, 'Microsoft YaHei', sans-serif; fill: #e7e7e9; }
    .subtitle, .axis, .metric-label, .footer { fill: #a7a7ad; }
    .subtitle { font-size: 12px; } .axis { font-size: 11px; }
    .metric-value { font-size: 14px; font-weight: 700; } .metric-label { font-size: 11px; }
    .footer { font-size: 10px; } .tooltip-date { font-size: 12px; font-weight: 700; }
    .tooltip-text { font-size: 12px; } .crosshair { stroke: #b9b9bc; stroke-width: 1; }
    .tooltip { opacity: 0; pointer-events: none; } .point:hover .tooltip { opacity: 1; }
  </style>
  <rect x="1" y="1" width="1318" height="358" rx="9" fill="#1d1e20" stroke="#35363a"/>
  <text x="24" y="34" font-size="18" font-weight="700">Star 趋势</text>
  <text x="24" y="58" class="subtitle">最近 90 天本地快照趋势，前台不实时请求 GitHub。</text>
  <rect x="924" y="15" width="92" height="55" rx="5" fill="#303033"/><text x="933" y="37" class="metric-value">759</text><text x="933" y="58" class="metric-label">当前 Stars</text><rect x="1019" y="15" width="92" height="55" rx="5" fill="#303033"/><text x="1028" y="37" class="metric-value">+559</text><text x="1028" y="58" class="metric-label">首尾差值</text><rect x="1114" y="15" width="92" height="55" rx="5" fill="#303033"/><text x="1123" y="37" class="metric-value">43</text><text x="1123" y="58" class="metric-label">快照数量</text><rect x="1209" y="15" width="92" height="55" rx="5" fill="#303033"/><text x="1218" y="37" class="metric-value">2026-10-02</text><text x="1218" y="58" class="metric-label">最近快照</text>
  <g class="axis"><line x1="72" y1="306.0" x2="1292" y2="306.0" stroke="#45464a" stroke-dasharray="4 5"/><text x="60" y="310.0" text-anchor="end">200</text><line x1="72" y1="239.3" x2="1292" y2="239.3" stroke="#45464a" stroke-dasharray="4 5"/><text x="60" y="243.3" text-anchor="end">400</text><line x1="72" y1="172.7" x2="1292" y2="172.7" stroke="#45464a" stroke-dasharray="4 5"/><text x="60" y="176.7" text-anchor="end">600</text><line x1="72" y1="106.0" x2="1292" y2="106.0" stroke="#45464a" stroke-dasharray="4 5"/><text x="60" y="110.0" text-anchor="end">800</text><text x="72.0" y="326" text-anchor="middle">2026-08-21</text><text x="188.2" y="326" text-anchor="middle">2026-08-25</text><text x="275.3" y="326" text-anchor="middle">2026-08-28</text><text x="362.5" y="326" text-anchor="middle">2026-08-31</text><text x="478.7" y="326" text-anchor="middle">2026-09-04</text><text x="594.9" y="326" text-anchor="middle">2026-09-08</text><text x="682.0" y="326" text-anchor="middle">2026-09-11</text><text x="769.1" y="326" text-anchor="middle">2026-09-14</text><text x="885.3" y="326" text-anchor="middle">2026-09-18</text><text x="1001.5" y="326" text-anchor="middle">2026-09-22</text><text x="1088.7" y="326" text-anchor="middle">2026-09-25</text><text x="1175.8" y="326" text-anchor="middle">2026-09-28</text><text x="1292.0" y="326" text-anchor="middle">2026-10-02</text></g>
  <path d="M 72.0 306.0 Q 101.0 304.7 115.6 303.8 Q 130.1 303.0 144.6 302.0 Q 159.1 301.0 173.7 300.0 Q 188.2 299.0 202.7 298.5 Q 217.2 298.0 231.8 297.2 Q 246.3 296.3 260.8 296.0 Q 275.3 295.7 289.9 295.0 Q 304.4 294.3 318.9 292.8 Q 333.4 291.3 348.0 289.2 Q 362.5 287.0 377.0 286.0 Q 391.5 285.0 406.0 283.5 Q 420.6 282.0 435.1 281.3 Q 449.6 280.7 464.1 280.3 Q 478.7 280.0 493.2 279.3 Q 507.7 278.7 522.2 277.7 Q 536.8 276.7 551.3 275.3 Q 565.8 274.0 580.3 273.2 Q 594.9 272.3 609.4 272.0 Q 623.9 271.7 638.4 271.5 Q 653.0 271.3 667.5 270.2 Q 682.0 269.0 696.5 268.5 Q 711.0 268.0 725.6 267.2 Q 740.1 266.3 754.6 265.5 Q 769.1 264.7 783.7 259.5 Q 798.2 254.3 812.7 248.8 Q 827.2 243.3 841.8 236.8 Q 856.3 230.3 870.8 223.7 Q 885.3 217.0 899.9 210.5 Q 914.4 204.0 928.9 200.7 Q 943.4 197.3 958.0 192.8 Q 972.5 188.3 987.0 185.5 Q 1001.5 182.7 1016.0 179.5 Q 1030.6 176.3 1045.1 173.7 Q 1059.6 171.0 1074.1 166.7 Q 1088.7 162.3 1103.2 159.5 Q 1117.7 156.7 1132.2 154.3 Q 1146.8 152.0 1161.3 149.3 Q 1175.8 146.7 1190.3 146.5 Q 1204.9 146.3 1219.4 138.0 Q 1233.9 129.7 1248.4 125.7 Q 1263.0 121.7 1277.5 120.7 L 1292.0 119.7 L 1292.0 306.0 L 72.0 306.0 Z" fill="#5baeff" fill-opacity=".13"/>
  <path d="M 72.0 306.0 Q 101.0 304.7 115.6 303.8 Q 130.1 303.0 144.6 302.0 Q 159.1 301.0 173.7 300.0 Q 188.2 299.0 202.7 298.5 Q 217.2 298.0 231.8 297.2 Q 246.3 296.3 260.8 296.0 Q 275.3 295.7 289.9 295.0 Q 304.4 294.3 318.9 292.8 Q 333.4 291.3 348.0 289.2 Q 362.5 287.0 377.0 286.0 Q 391.5 285.0 406.0 283.5 Q 420.6 282.0 435.1 281.3 Q 449.6 280.7 464.1 280.3 Q 478.7 280.0 493.2 279.3 Q 507.7 278.7 522.2 277.7 Q 536.8 276.7 551.3 275.3 Q 565.8 274.0 580.3 273.2 Q 594.9 272.3 609.4 272.0 Q 623.9 271.7 638.4 271.5 Q 653.0 271.3 667.5 270.2 Q 682.0 269.0 696.5 268.5 Q 711.0 268.0 725.6 267.2 Q 740.1 266.3 754.6 265.5 Q 769.1 264.7 783.7 259.5 Q 798.2 254.3 812.7 248.8 Q 827.2 243.3 841.8 236.8 Q 856.3 230.3 870.8 223.7 Q 885.3 217.0 899.9 210.5 Q 914.4 204.0 928.9 200.7 Q 943.4 197.3 958.0 192.8 Q 972.5 188.3 987.0 185.5 Q 1001.5 182.7 1016.0 179.5 Q 1030.6 176.3 1045.1 173.7 Q 1059.6 171.0 1074.1 166.7 Q 1088.7 162.3 1103.2 159.5 Q 1117.7 156.7 1132.2 154.3 Q 1146.8 152.0 1161.3 149.3 Q 1175.8 146.7 1190.3 146.5 Q 1204.9 146.3 1219.4 138.0 Q 1233.9 129.7 1248.4 125.7 Q 1263.0 121.7 1277.5 120.7 L 1292.0 119.7" fill="none" stroke="#63b7ff" stroke-width="2" stroke-linecap="round" stroke-linejoin="round"/>
  <g><g class="point"><circle cx="72.0" cy="306.0" r="11" fill="transparent"/><g class="tooltip"><line x1="72.0" y1="106" x2="72.0" y2="306" class="crosshair"/><circle cx="72.0" cy="306.0" r="4" fill="#69baff" stroke="#fff" stroke-width="1.5"/><rect x="85.0" y="236.0" width="124" height="66" rx="4" fill="#101113" opacity=".96"/><text x="93.0" y="254.0" class="tooltip-date">2026-08-21</text><text x="93.0" y="275.0" class="tooltip-text">Stars: 200</text><text x="93.0" y="293.0" class="tooltip-text">单日增长: —</text></g></g><g class="point"><circle cx="101.0" cy="304.7" r="11" fill="transparent"/><g class="tooltip"><line x1="101.0" y1="106" x2="101.0" y2="306" class="crosshair"/><circle cx="101.0" cy="304.7" r="4" fill="#69baff" stroke="#fff" stroke-width="1.5"/><rect x="114.0" y="236.0" width="124" height="66" rx="4" fill="#101113" opacity=".96"/><text x="122.0" y="254.0" class="tooltip-date">2026-08-22</text><text x="122.0" y="275.0" class="tooltip-text">Stars: 204</text><text x="122.0" y="293.0" class="tooltip-text">单日增长: +4</text></g></g><g class="point"><circle cx="130.1" cy="303.0" r="11" fill="transparent"/><g class="tooltip"><line x1="130.1" y1="106" x2="130.1" y2="306" class="crosshair"/><circle cx="130.1" cy="303.0" r="4" fill="#69baff" stroke="#fff" stroke-width="1.5"/><rect x="143.1" y="236.0" width="124" height="66" rx="4" fill="#101113" opacity=".96"/><text x="151.1" y="254.0" class="tooltip-date">2026-08-23</text><text x="151.1" y="275.0" class="tooltip-text">Stars: 209</text><text x="151.1" y="293.0" class="tooltip-text">单日增长: +5</text></g></g><g class="point"><circle cx="159.1" cy="301.0" r="11" fill="transparent"/><g class="tooltip"><line x1="159.1" y1="106" x2="159.1" y2="306" class="crosshair"/><circle cx="159.1" cy="301.0" r="4" fill="#69baff" stroke="#fff" stroke-width="1.5"/><rect x="172.1" y="236.0" width="124" height="66" rx="4" fill="#101113" opacity=".96"/><text x="180.1" y="254.0" class="tooltip-date">2026-08-24</text><text x="180.1" y="275.0" class="tooltip-text">Stars: 215</text><text x="180.1" y="293.0" class="tooltip-text">单日增长: +6</text></g></g><g class="point"><circle cx="188.2" cy="299.0" r="11" fill="transparent"/><g class="tooltip"><line x1="188.2" y1="106" x2="188.2" y2="306" class="crosshair"/><circle cx="188.2" cy="299.0" r="4" fill="#69baff" stroke="#fff" stroke-width="1.5"/><rect x="201.2" y="236.0" width="124" height="66" rx="4" fill="#101113" opacity=".96"/><text x="209.2" y="254.0" class="tooltip-date">2026-08-25</text><text x="209.2" y="275.0" class="tooltip-text">Stars: 221</text><text x="209.2" y="293.0" class="tooltip-text">单日增长: +6</text></g></g><g class="point"><circle cx="217.2" cy="298.0" r="11" fill="transparent"/><g class="tooltip"><line x1="217.2" y1="106" x2="217.2" y2="306" class="crosshair"/><circle cx="217.2" cy="298.0" r="4" fill="#69baff" stroke="#fff" stroke-width="1.5"/><rect x="230.2" y="236.0" width="124" height="66" rx="4" fill="#101113" opacity=".96"/><text x="238.2" y="254.0" class="tooltip-date">2026-08-26</text><text x="238.2" y="275.0" class="tooltip-text">Stars: 224</text><text x="238.2" y="293.0" class="tooltip-text">单日增长: +3</text></g></g><g class="point"><circle cx="246.3" cy="296.3" r="11" fill="transparent"/><g class="tooltip"><line x1="246.3" y1="106" x2="246.3" y2="306" class="crosshair"/><circle cx="246.3" cy="296.3" r="4" fill="#69baff" stroke="#fff" stroke-width="1.5"/><rect x="259.3" y="236.0" width="124" height="66" rx="4" fill="#101113" opacity=".96"/><text x="267.3" y="254.0" class="tooltip-date">2026-08-27</text><text x="267.3" y="275.0" class="tooltip-text">Stars: 229</text><text x="267.3" y="293.0" class="tooltip-text">单日增长: +5</text></g></g><g class="point"><circle cx="275.3" cy="295.7" r="11" fill="transparent"/><g class="tooltip"><line x1="275.3" y1="106" x2="275.3" y2="306" class="crosshair"/><circle cx="275.3" cy="295.7" r="4" fill="#69baff" stroke="#fff" stroke-width="1.5"/><rect x="288.3" y="236.0" width="124" height="66" rx="4" fill="#101113" opacity=".96"/><text x="296.3" y="254.0" class="tooltip-date">2026-08-28</text><text x="296.3" y="275.0" class="tooltip-text">Stars: 231</text><text x="296.3" y="293.0" class="tooltip-text">单日增长: +2</text></g></g><g class="point"><circle cx="304.4" cy="294.3" r="11" fill="transparent"/><g class="tooltip"><line x1="304.4" y1="106" x2="304.4" y2="306" class="crosshair"/><circle cx="304.4" cy="294.3" r="4" fill="#69baff" stroke="#fff" stroke-width="1.5"/><rect x="317.4" y="236.0" width="124" height="66" rx="4" fill="#101113" opacity=".96"/><text x="325.4" y="254.0" class="tooltip-date">2026-08-29</text><text x="325.4" y="275.0" class="tooltip-text">Stars: 235</text><text x="325.4" y="293.0" class="tooltip-text">单日增长: +4</text></g></g><g class="point"><circle cx="333.4" cy="291.3" r="11" fill="transparent"/><g class="tooltip"><line x1="333.4" y1="106" x2="333.4" y2="306" class="crosshair"/><circle cx="333.4" cy="291.3" r="4" fill="#69baff" stroke="#fff" stroke-width="1.5"/><rect x="346.4" y="236.0" width="124" height="66" rx="4" fill="#101113" opacity=".96"/><text x="354.4" y="254.0" class="tooltip-date">2026-08-30</text><text x="354.4" y="275.0" class="tooltip-text">Stars: 244</text><text x="354.4" y="293.0" class="tooltip-text">单日增长: +9</text></g></g><g class="point"><circle cx="362.5" cy="287.0" r="11" fill="transparent"/><g class="tooltip"><line x1="362.5" y1="106" x2="362.5" y2="306" class="crosshair"/><circle cx="362.5" cy="287.0" r="4" fill="#69baff" stroke="#fff" stroke-width="1.5"/><rect x="375.5" y="236.0" width="124" height="66" rx="4" fill="#101113" opacity=".96"/><text x="383.5" y="254.0" class="tooltip-date">2026-08-31</text><text x="383.5" y="275.0" class="tooltip-text">Stars: 257</text><text x="383.5" y="293.0" class="tooltip-text">单日增长: +13</text></g></g><g class="point"><circle cx="391.5" cy="285.0" r="11" fill="transparent"/><g class="tooltip"><line x1="391.5" y1="106" x2="391.5" y2="306" class="crosshair"/><circle cx="391.5" cy="285.0" r="4" fill="#69baff" stroke="#fff" stroke-width="1.5"/><rect x="404.5" y="236.0" width="124" height="66" rx="4" fill="#101113" opacity=".96"/><text x="412.5" y="254.0" class="tooltip-date">2026-09-01</text><text x="412.5" y="275.0" class="tooltip-text">Stars: 263</text><text x="412.5" y="293.0" class="tooltip-text">单日增长: +6</text></g></g><g class="point"><circle cx="420.6" cy="282.0" r="11" fill="transparent"/><g class="tooltip"><line x1="420.6" y1="106" x2="420.6" y2="306" class="crosshair"/><circle cx="420.6" cy="282.0" r="4" fill="#69baff" stroke="#fff" stroke-width="1.5"/><rect x="433.6" y="236.0" width="124" height="66" rx="4" fill="#101113" opacity=".96"/><text x="441.6" y="254.0" class="tooltip-date">2026-09-02</text><text x="441.6" y="275.0" class="tooltip-text">Stars: 272</text><text x="441.6" y="293.0" class="tooltip-text">单日增长: +9</text></g></g><g class="point"><circle cx="449.6" cy="280.7" r="11" fill="transparent"/><g class="tooltip"><line x1="449.6" y1="106" x2="449.6" y2="306" class="crosshair"/><circle cx="449.6" cy="280.7" r="4" fill="#69baff" stroke="#fff" stroke-width="1.5"/><rect x="462.6" y="236.0" width="124" height="66" rx="4" fill="#101113" opacity=".96"/><text x="470.6" y="254.0" class="tooltip-date">2026-09-03</text><text x="470.6" y="275.0" class="tooltip-text">Stars: 276</text><text x="470.6" y="293.0" class="tooltip-text">单日增长: +4</text></g></g><g class="point"><circle cx="478.7" cy="280.0" r="11" fill="transparent"/><g class="tooltip"><line x1="478.7" y1="106" x2="478.7" y2="306" class="crosshair"/><circle cx="478.7" cy="280.0" r="4" fill="#69baff" stroke="#fff" stroke-width="1.5"/><rect x="491.7" y="236.0" width="124" height="66" rx="4" fill="#101113" opacity=".96"/><text x="499.7" y="254.0" class="tooltip-date">2026-09-04</text><text x="499.7" y="275.0" class="tooltip-text">Stars: 278</text><text x="499.7" y="293.0" class="tooltip-text">单日增长: +2</text></g></g><g class="point"><circle cx="507.7" cy="278.7" r="11" fill="transparent"/><g class="tooltip"><line x1="507.7" y1="106" x2="507.7" y2="306" class="crosshair"/><circle cx="507.7" cy="278.7" r="4" fill="#69baff" stroke="#fff" stroke-width="1.5"/><rect x="520.7" y="236.0" width="124" height="66" rx="4" fill="#101113" opacity=".96"/><text x="528.7" y="254.0" class="tooltip-date">2026-09-05</text><text x="528.7" y="275.0" class="tooltip-text">Stars: 282</text><text x="528.7" y="293.0" class="tooltip-text">单日增长: +4</text></g></g><g class="point"><circle cx="536.8" cy="276.7" r="11" fill="transparent"/><g class="tooltip"><line x1="536.8" y1="106" x2="536.8" y2="306" class="crosshair"/><circle cx="536.8" cy="276.7" r="4" fill="#69baff" stroke="#fff" stroke-width="1.5"/><rect x="549.8" y="236.0" width="124" height="66" rx="4" fill="#101113" opacity=".96"/><text x="557.8" y="254.0" class="tooltip-date">2026-09-06</text><text x="557.8" y="275.0" class="tooltip-text">Stars: 288</text><text x="557.8" y="293.0" class="tooltip-text">单日增长: +6</text></g></g><g class="point"><circle cx="565.8" cy="274.0" r="11" fill="transparent"/><g class="tooltip"><line x1="565.8" y1="106" x2="565.8" y2="306" class="crosshair"/><circle cx="565.8" cy="274.0" r="4" fill="#69baff" stroke="#fff" stroke-width="1.5"/><rect x="578.8" y="236.0" width="124" height="66" rx="4" fill="#101113" opacity=".96"/><text x="586.8" y="254.0" class="tooltip-date">2026-09-07</text><text x="586.8" y="275.0" class="tooltip-text">Stars: 296</text><text x="586.8" y="293.0" class="tooltip-text">单日增长: +8</text></g></g><g class="point"><circle cx="594.9" cy="272.3" r="11" fill="transparent"/><g class="tooltip"><line x1="594.9" y1="106" x2="594.9" y2="306" class="crosshair"/><circle cx="594.9" cy="272.3" r="4" fill="#69baff" stroke="#fff" stroke-width="1.5"/><rect x="607.9" y="236.0" width="124" height="66" rx="4" fill="#101113" opacity=".96"/><text x="615.9" y="254.0" class="tooltip-date">2026-09-08</text><text x="615.9" y="275.0" class="tooltip-text">Stars: 301</text><text x="615.9" y="293.0" class="tooltip-text">单日增长: +5</text></g></g><g class="point"><circle cx="623.9" cy="271.7" r="11" fill="transparent"/><g class="tooltip"><line x1="623.9" y1="106" x2="623.9" y2="306" class="crosshair"/><circle cx="623.9" cy="271.7" r="4" fill="#69baff" stroke="#fff" stroke-width="1.5"/><rect x="636.9" y="236.0" width="124" height="66" rx="4" fill="#101113" opacity=".96"/><text x="644.9" y="254.0" class="tooltip-date">2026-09-09</text><text x="644.9" y="275.0" class="tooltip-text">Stars: 303</text><text x="644.9" y="293.0" class="tooltip-text">单日增长: +2</text></g></g><g class="point"><circle cx="653.0" cy="271.3" r="11" fill="transparent"/><g class="tooltip"><line x1="653.0" y1="106" x2="653.0" y2="306" class="crosshair"/><circle cx="653.0" cy="271.3" r="4" fill="#69baff" stroke="#fff" stroke-width="1.5"/><rect x="666.0" y="236.0" width="124" height="66" rx="4" fill="#101113" opacity=".96"/><text x="674.0" y="254.0" class="tooltip-date">2026-09-10</text><text x="674.0" y="275.0" class="tooltip-text">Stars: 304</text><text x="674.0" y="293.0" class="tooltip-text">单日增长: +1</text></g></g><g class="point"><circle cx="682.0" cy="269.0" r="11" fill="transparent"/><g class="tooltip"><line x1="682.0" y1="106" x2="682.0" y2="306" class="crosshair"/><circle cx="682.0" cy="269.0" r="4" fill="#69baff" stroke="#fff" stroke-width="1.5"/><rect x="695.0" y="236.0" width="124" height="66" rx="4" fill="#101113" opacity=".96"/><text x="703.0" y="254.0" class="tooltip-date">2026-09-11</text><text x="703.0" y="275.0" class="tooltip-text">Stars: 311</text><text x="703.0" y="293.0" class="tooltip-text">单日增长: +7</text></g></g><g class="point"><circle cx="711.0" cy="268.0" r="11" fill="transparent"/><g class="tooltip"><line x1="711.0" y1="106" x2="711.0" y2="306" class="crosshair"/><circle cx="711.0" cy="268.0" r="4" fill="#69baff" stroke="#fff" stroke-width="1.5"/><rect x="724.0" y="235.0" width="124" height="66" rx="4" fill="#101113" opacity=".96"/><text x="732.0" y="253.0" class="tooltip-date">2026-09-12</text><text x="732.0" y="274.0" class="tooltip-text">Stars: 314</text><text x="732.0" y="292.0" class="tooltip-text">单日增长: +3</text></g></g><g class="point"><circle cx="740.1" cy="266.3" r="11" fill="transparent"/><g class="tooltip"><line x1="740.1" y1="106" x2="740.1" y2="306" class="crosshair"/><circle cx="740.1" cy="266.3" r="4" fill="#69baff" stroke="#fff" stroke-width="1.5"/><rect x="753.1" y="233.3" width="124" height="66" rx="4" fill="#101113" opacity=".96"/><text x="761.1" y="251.3" class="tooltip-date">2026-09-13</text><text x="761.1" y="272.3" class="tooltip-text">Stars: 319</text><text x="761.1" y="290.3" class="tooltip-text">单日增长: +5</text></g></g><g class="point"><circle cx="769.1" cy="264.7" r="11" fill="transparent"/><g class="tooltip"><line x1="769.1" y1="106" x2="769.1" y2="306" class="crosshair"/><circle cx="769.1" cy="264.7" r="4" fill="#69baff" stroke="#fff" stroke-width="1.5"/><rect x="782.1" y="231.7" width="124" height="66" rx="4" fill="#101113" opacity=".96"/><text x="790.1" y="249.7" class="tooltip-date">2026-09-14</text><text x="790.1" y="270.7" class="tooltip-text">Stars: 324</text><text x="790.1" y="288.7" class="tooltip-text">单日增长: +5</text></g></g><g class="point"><circle cx="798.2" cy="254.3" r="11" fill="transparent"/><g class="tooltip"><line x1="798.2" y1="106" x2="798.2" y2="306" class="crosshair"/><circle cx="798.2" cy="254.3" r="4" fill="#69baff" stroke="#fff" stroke-width="1.5"/><rect x="811.2" y="221.3" width="124" height="66" rx="4" fill="#101113" opacity=".96"/><text x="819.2" y="239.3" class="tooltip-date">2026-09-15</text><text x="819.2" y="260.3" class="tooltip-text">Stars: 355</text><text x="819.2" y="278.3" class="tooltip-text">单日增长: +31</text></g></g><g class="point"><circle cx="827.2" cy="243.3" r="11" fill="transparent"/><g class="tooltip"><line x1="827.2" y1="106" x2="827.2" y2="306" class="crosshair"/><circle cx="827.2" cy="243.3" r="4" fill="#69baff" stroke="#fff" stroke-width="1.5"/><rect x="840.2" y="210.3" width="124" height="66" rx="4" fill="#101113" opacity=".96"/><text x="848.2" y="228.3" class="tooltip-date">2026-09-16</text><text x="848.2" y="249.3" class="tooltip-text">Stars: 388</text><text x="848.2" y="267.3" class="tooltip-text">单日增长: +33</text></g></g><g class="point"><circle cx="856.3" cy="230.3" r="11" fill="transparent"/><g class="tooltip"><line x1="856.3" y1="106" x2="856.3" y2="306" class="crosshair"/><circle cx="856.3" cy="230.3" r="4" fill="#69baff" stroke="#fff" stroke-width="1.5"/><rect x="869.3" y="197.3" width="124" height="66" rx="4" fill="#101113" opacity=".96"/><text x="877.3" y="215.3" class="tooltip-date">2026-09-17</text><text x="877.3" y="236.3" class="tooltip-text">Stars: 427</text><text x="877.3" y="254.3" class="tooltip-text">单日增长: +39</text></g></g><g class="point"><circle cx="885.3" cy="217.0" r="11" fill="transparent"/><g class="tooltip"><line x1="885.3" y1="106" x2="885.3" y2="306" class="crosshair"/><circle cx="885.3" cy="217.0" r="4" fill="#69baff" stroke="#fff" stroke-width="1.5"/><rect x="898.3" y="184.0" width="124" height="66" rx="4" fill="#101113" opacity=".96"/><text x="906.3" y="202.0" class="tooltip-date">2026-09-18</text><text x="906.3" y="223.0" class="tooltip-text">Stars: 467</text><text x="906.3" y="241.0" class="tooltip-text">单日增长: +40</text></g></g><g class="point"><circle cx="914.4" cy="204.0" r="11" fill="transparent"/><g class="tooltip"><line x1="914.4" y1="106" x2="914.4" y2="306" class="crosshair"/><circle cx="914.4" cy="204.0" r="4" fill="#69baff" stroke="#fff" stroke-width="1.5"/><rect x="927.4" y="171.0" width="124" height="66" rx="4" fill="#101113" opacity=".96"/><text x="935.4" y="189.0" class="tooltip-date">2026-09-19</text><text x="935.4" y="210.0" class="tooltip-text">Stars: 506</text><text x="935.4" y="228.0" class="tooltip-text">单日增长: +39</text></g></g><g class="point"><circle cx="943.4" cy="197.3" r="11" fill="transparent"/><g class="tooltip"><line x1="943.4" y1="106" x2="943.4" y2="306" class="crosshair"/><circle cx="943.4" cy="197.3" r="4" fill="#69baff" stroke="#fff" stroke-width="1.5"/><rect x="956.4" y="164.3" width="124" height="66" rx="4" fill="#101113" opacity=".96"/><text x="964.4" y="182.3" class="tooltip-date">2026-09-20</text><text x="964.4" y="203.3" class="tooltip-text">Stars: 526</text><text x="964.4" y="221.3" class="tooltip-text">单日增长: +20</text></g></g><g class="point"><circle cx="972.5" cy="188.3" r="11" fill="transparent"/><g class="tooltip"><line x1="972.5" y1="106" x2="972.5" y2="306" class="crosshair"/><circle cx="972.5" cy="188.3" r="4" fill="#69baff" stroke="#fff" stroke-width="1.5"/><rect x="985.5" y="155.3" width="124" height="66" rx="4" fill="#101113" opacity=".96"/><text x="993.5" y="173.3" class="tooltip-date">2026-09-21</text><text x="993.5" y="194.3" class="tooltip-text">Stars: 553</text><text x="993.5" y="212.3" class="tooltip-text">单日增长: +27</text></g></g><g class="point"><circle cx="1001.5" cy="182.7" r="11" fill="transparent"/><g class="tooltip"><line x1="1001.5" y1="106" x2="1001.5" y2="306" class="crosshair"/><circle cx="1001.5" cy="182.7" r="4" fill="#69baff" stroke="#fff" stroke-width="1.5"/><rect x="1014.5" y="149.7" width="124" height="66" rx="4" fill="#101113" opacity=".96"/><text x="1022.5" y="167.7" class="tooltip-date">2026-09-22</text><text x="1022.5" y="188.7" class="tooltip-text">Stars: 570</text><text x="1022.5" y="206.7" class="tooltip-text">单日增长: +17</text></g></g><g class="point"><circle cx="1030.6" cy="176.3" r="11" fill="transparent"/><g class="tooltip"><line x1="1030.6" y1="106" x2="1030.6" y2="306" class="crosshair"/><circle cx="1030.6" cy="176.3" r="4" fill="#69baff" stroke="#fff" stroke-width="1.5"/><rect x="1043.6" y="143.3" width="124" height="66" rx="4" fill="#101113" opacity=".96"/><text x="1051.6" y="161.3" class="tooltip-date">2026-09-23</text><text x="1051.6" y="182.3" class="tooltip-text">Stars: 589</text><text x="1051.6" y="200.3" class="tooltip-text">单日增长: +19</text></g></g><g class="point"><circle cx="1059.6" cy="171.0" r="11" fill="transparent"/><g class="tooltip"><line x1="1059.6" y1="106" x2="1059.6" y2="306" class="crosshair"/><circle cx="1059.6" cy="171.0" r="4" fill="#69baff" stroke="#fff" stroke-width="1.5"/><rect x="1072.6" y="138.0" width="124" height="66" rx="4" fill="#101113" opacity=".96"/><text x="1080.6" y="156.0" class="tooltip-date">2026-09-24</text><text x="1080.6" y="177.0" class="tooltip-text">Stars: 605</text><text x="1080.6" y="195.0" class="tooltip-text">单日增长: +16</text></g></g><g class="point"><circle cx="1088.7" cy="162.3" r="11" fill="transparent"/><g class="tooltip"><line x1="1088.7" y1="106" x2="1088.7" y2="306" class="crosshair"/><circle cx="1088.7" cy="162.3" r="4" fill="#69baff" stroke="#fff" stroke-width="1.5"/><rect x="1101.7" y="129.3" width="124" height="66" rx="4" fill="#101113" opacity=".96"/><text x="1109.7" y="147.3" class="tooltip-date">2026-09-25</text><text x="1109.7" y="168.3" class="tooltip-text">Stars: 631</text><text x="1109.7" y="186.3" class="tooltip-text">单日增长: +26</text></g></g><g class="point"><circle cx="1117.7" cy="156.7" r="11" fill="transparent"/><g class="tooltip"><line x1="1117.7" y1="106" x2="1117.7" y2="306" class="crosshair"/><circle cx="1117.7" cy="156.7" r="4" fill="#69baff" stroke="#fff" stroke-width="1.5"/><rect x="1130.7" y="123.7" width="124" height="66" rx="4" fill="#101113" opacity=".96"/><text x="1138.7" y="141.7" class="tooltip-date">2026-09-26</text><text x="1138.7" y="162.7" class="tooltip-text">Stars: 648</text><text x="1138.7" y="180.7" class="tooltip-text">单日增长: +17</text></g></g><g class="point"><circle cx="1146.8" cy="152.0" r="11" fill="transparent"/><g class="tooltip"><line x1="1146.8" y1="106" x2="1146.8" y2="306" class="crosshair"/><circle cx="1146.8" cy="152.0" r="4" fill="#69baff" stroke="#fff" stroke-width="1.5"/><rect x="1159.8" y="119.0" width="124" height="66" rx="4" fill="#101113" opacity=".96"/><text x="1167.8" y="137.0" class="tooltip-date">2026-09-27</text><text x="1167.8" y="158.0" class="tooltip-text">Stars: 662</text><text x="1167.8" y="176.0" class="tooltip-text">单日增长: +14</text></g></g><g class="point"><circle cx="1175.8" cy="146.7" r="11" fill="transparent"/><g class="tooltip"><line x1="1175.8" y1="106" x2="1175.8" y2="306" class="crosshair"/><circle cx="1175.8" cy="146.7" r="4" fill="#69baff" stroke="#fff" stroke-width="1.5"/><rect x="1038.8" y="113.7" width="124" height="66" rx="4" fill="#101113" opacity=".96"/><text x="1046.8" y="131.7" class="tooltip-date">2026-09-28</text><text x="1046.8" y="152.7" class="tooltip-text">Stars: 678</text><text x="1046.8" y="170.7" class="tooltip-text">单日增长: +16</text></g></g><g class="point"><circle cx="1204.9" cy="146.3" r="11" fill="transparent"/><g class="tooltip"><line x1="1204.9" y1="106" x2="1204.9" y2="306" class="crosshair"/><circle cx="1204.9" cy="146.3" r="4" fill="#69baff" stroke="#fff" stroke-width="1.5"/><rect x="1067.9" y="113.3" width="124" height="66" rx="4" fill="#101113" opacity=".96"/><text x="1075.9" y="131.3" class="tooltip-date">2026-09-29</text><text x="1075.9" y="152.3" class="tooltip-text">Stars: 679</text><text x="1075.9" y="170.3" class="tooltip-text">单日增长: +1</text></g></g><g class="point"><circle cx="1233.9" cy="129.7" r="11" fill="transparent"/><g class="tooltip"><line x1="1233.9" y1="106" x2="1233.9" y2="306" class="crosshair"/><circle cx="1233.9" cy="129.7" r="4" fill="#69baff" stroke="#fff" stroke-width="1.5"/><rect x="1096.9" y="110.0" width="124" height="66" rx="4" fill="#101113" opacity=".96"/><text x="1104.9" y="128.0" class="tooltip-date">2026-09-30</text><text x="1104.9" y="149.0" class="tooltip-text">Stars: 729</text><text x="1104.9" y="167.0" class="tooltip-text">单日增长: +50</text></g></g><g class="point"><circle cx="1263.0" cy="121.7" r="11" fill="transparent"/><g class="tooltip"><line x1="1263.0" y1="106" x2="1263.0" y2="306" class="crosshair"/><circle cx="1263.0" cy="121.7" r="4" fill="#69baff" stroke="#fff" stroke-width="1.5"/><rect x="1126.0" y="110.0" width="124" height="66" rx="4" fill="#101113" opacity=".96"/><text x="1134.0" y="128.0" class="tooltip-date">2026-10-01</text><text x="1134.0" y="149.0" class="tooltip-text">Stars: 753</text><text x="1134.0" y="167.0" class="tooltip-text">单日增长: +24</text></g></g><g class="point"><circle cx="1292.0" cy="119.7" r="11" fill="transparent"/><g class="tooltip"><line x1="1292.0" y1="106" x2="1292.0" y2="306" class="crosshair"/><circle cx="1292.0" cy="119.7" r="4" fill="#69baff" stroke="#fff" stroke-width="1.5"/><rect x="1155.0" y="110.0" width="124" height="66" rx="4" fill="#101113" opacity=".96"/><text x="1163.0" y="128.0" class="tooltip-date">2026-10-02</text><text x="1163.0" y="149.0" class="tooltip-text">Stars: 759</text><text x="1163.0" y="167.0" class="tooltip-text">单日增长: +6</text></g></g></g>
  <text x="24" y="352" class="footer">趋势基于本地每日快照，不在前台实时请求 GitHub。</text>
</svg>
